<svg width="21" height="22" viewBox="0 0 21 22" fill="none" xmlns="http://www.w3.org/2000/svg">
<path d="M8.7588 6.08749C10.0612 6.08749 11.117 5.0317 11.117 3.72932C11.117 2.42694 10.0612 1.37115 8.7588 1.37115C7.45642 1.37115 6.40063 2.42694 6.40063 3.72932C6.40063 5.0317 7.45642 6.08749 8.7588 6.08749Z" fill="#B7DBF9"/>
<path d="M14.1726 11.0093V10.9824L11.6427 7.2093L11.5989 7.14867C11.4796 6.99539 11.3197 6.87867 11.1374 6.81178C11.0219 6.77568 10.9012 6.75861 10.7803 6.76125H6.40081V6.82863C6.20653 6.90423 6.03973 7.03696 5.92244 7.2093L3.36888 10.9824L3.35204 11.0093C3.25486 11.1463 3.20196 11.3097 3.20044 11.4776C3.20044 11.701 3.28917 11.9152 3.44711 12.0731C3.60506 12.2311 3.81928 12.3198 4.04264 12.3198H6.17847L6.10772 14.048L5.0196 15.0081L4.97917 15.0452C4.83378 15.1725 4.72566 15.3368 4.66634 15.5207C4.60701 15.7047 4.5987 15.9012 4.64229 16.0895L5.74726 20.7856C5.81333 21.0372 5.97391 21.2537 6.19556 21.3899C6.41721 21.5262 6.68286 21.5717 6.93722 21.517C7.19157 21.4623 7.41504 21.3116 7.5611 21.0963C7.70717 20.881 7.76458 20.6177 7.72138 20.3611L6.93645 16.3186L8.37156 15.1833H9.14639L10.5781 16.3085L9.7932 20.351C9.75 20.6076 9.80741 20.8709 9.95347 21.0862C10.0995 21.3015 10.323 21.4522 10.5774 21.5069C10.8317 21.5616 11.0974 21.5161 11.319 21.3798C11.5407 21.2436 11.7012 21.0271 11.7673 20.7755L12.8723 16.0794C12.9151 15.8906 12.9064 15.6938 12.8471 15.5095C12.7878 15.3252 12.6802 15.1602 12.5354 15.0317L12.495 14.998L11.4069 14.0379L11.353 12.6567H10.1065C9.79378 12.6567 9.49388 12.5324 9.27276 12.3113C9.05164 12.0902 8.92741 11.7903 8.92741 11.4776C8.92741 11.1649 9.05164 10.865 9.27276 10.6438C9.49388 10.4227 9.79378 10.2985 10.1065 10.2985H11.2586V10.002L11.7538 10.6354H10.1065C9.88313 10.6354 9.66891 10.7241 9.51097 10.8821C9.35303 11.04 9.26429 11.2542 9.26429 11.4776C9.26429 11.701 9.35303 11.9152 9.51097 12.0731C9.66891 12.2311 9.88313 12.3198 10.1065 12.3198H13.4753C13.6425 12.32 13.8057 12.2695 13.9436 12.1749C14.0353 12.1135 14.1139 12.0347 14.1751 11.9428C14.2363 11.851 14.2787 11.7479 14.3 11.6397C14.3213 11.5314 14.321 11.42 14.2991 11.3118C14.2773 11.2036 14.2343 11.1008 14.1726 11.0093ZM5.77421 10.6354L6.26942 10.0122L6.24584 10.6354H5.77421Z" fill="#88B8F9"/>
<path d="M6.06386 5.41379H0.673762C0.301653 5.41379 0 5.71544 0 6.08755V10.1301C0 10.5022 0.301653 10.8039 0.673762 10.8039H6.06386C6.43596 10.8039 6.73762 10.5022 6.73762 10.1301V6.08755C6.73762 5.71544 6.43596 5.41379 6.06386 5.41379Z" fill="#2F79F0"/>
<path d="M16.5072 12.1513H0.336881C0.150827 12.1513 0 12.3021 0 12.4882V13.1619C0 13.348 0.150827 13.4988 0.336881 13.4988H16.5072C16.6932 13.4988 16.844 13.348 16.844 13.1619V12.4882C16.844 12.3021 16.6932 12.1513 16.5072 12.1513Z" fill="#2F79F0"/>
<path d="M3.36882 21.584H2.0213L1.68442 14.8463H3.7057L3.36882 21.584Z" fill="#0C3798"/>
<path d="M14.8226 21.584H13.4751L13.1382 14.8463H15.1595L14.8226 21.584Z" fill="#0C3798"/>
<path d="M0.336945 13.4987H16.5072V15.52C16.5072 15.6987 16.4362 15.8701 16.3099 15.9965C16.1835 16.1228 16.0122 16.1938 15.8335 16.1938H1.01071C0.832014 16.1938 0.66064 16.1228 0.534285 15.9965C0.40793 15.8701 0.336945 15.6987 0.336945 15.52V13.4987Z" fill="#0C3798"/>
<path d="M3.36886 8.78243C3.74097 8.78243 4.04262 8.48078 4.04262 8.10867C4.04262 7.73656 3.74097 7.43491 3.36886 7.43491C2.99675 7.43491 2.6951 7.73656 2.6951 8.10867C2.6951 8.48078 2.99675 8.78243 3.36886 8.78243Z" fill="#FFFEFF"/>
<path d="M11.7908 11.4775H5.7269V12.1513H11.7908V11.4775Z" fill="#F8CF6D"/>
<path d="M4.37944 11.4775H2.35815L2.63103 10.386C2.64947 10.3112 2.69296 10.2451 2.75426 10.1985C2.81555 10.1519 2.89095 10.1277 2.96791 10.13H3.7899C3.86685 10.1277 3.94225 10.1519 4.00355 10.1985C4.06484 10.2451 4.10833 10.3112 4.12678 10.386L4.37944 11.4775Z" fill="#B7DBF9"/>
<path d="M5.05323 11.4775H1.68442V12.1513H5.05323V11.4775Z" fill="#0C3798"/>
<path d="M16.8676 2.02129C16.8054 2.02161 16.7445 2.00341 16.6927 1.969C16.6409 1.9346 16.6005 1.88555 16.5766 1.8281C16.5528 1.77065 16.5466 1.70741 16.5588 1.64642C16.571 1.58543 16.6011 1.52947 16.6453 1.48564C16.6749 1.45705 16.6985 1.42277 16.7146 1.38486C16.7307 1.34695 16.739 1.30618 16.739 1.26499C16.739 1.2238 16.7307 1.18303 16.7146 1.14511C16.6985 1.1072 16.6749 1.07293 16.6453 1.04433L16.1366 0.532272C16.0779 0.474053 15.9986 0.441384 15.9159 0.441384C15.8333 0.441384 15.754 0.474053 15.6953 0.532272C15.6517 0.576211 15.596 0.606242 15.5353 0.618572C15.4747 0.630903 15.4117 0.62498 15.3544 0.601551C15.2971 0.578123 15.248 0.538239 15.2133 0.486936C15.1787 0.435634 15.16 0.375212 15.1596 0.313299C15.1596 0.230207 15.1266 0.150518 15.0679 0.0917632C15.0091 0.0330082 14.9294 0 14.8463 0H14.1254C14.0423 0 13.9626 0.0330082 13.9039 0.0917632C13.8451 0.150518 13.8121 0.230207 13.8121 0.313299C13.8118 0.375212 13.7931 0.435634 13.7584 0.486936C13.7238 0.538239 13.6747 0.578123 13.6174 0.601551C13.5601 0.62498 13.4971 0.630903 13.4364 0.618572C13.3758 0.606242 13.3201 0.576211 13.2765 0.532272C13.2178 0.474053 13.1385 0.441384 13.0558 0.441384C12.9732 0.441384 12.8938 0.474053 12.8352 0.532272L12.3265 1.03422C12.2968 1.06282 12.2732 1.0971 12.2571 1.13501C12.241 1.17292 12.2327 1.21369 12.2327 1.25488C12.2327 1.29607 12.241 1.33684 12.2571 1.37475C12.2732 1.41267 12.2968 1.44694 12.3265 1.47554C12.3706 1.51936 12.4007 1.57533 12.4129 1.63631C12.4252 1.6973 12.419 1.76055 12.3951 1.818C12.3713 1.87544 12.3309 1.92449 12.279 1.9589C12.2272 1.9933 12.1663 2.0115 12.1041 2.01118C12.021 2.01118 11.9414 2.04419 11.8826 2.10294C11.8238 2.1617 11.7908 2.24139 11.7908 2.32448V3.05551C11.7908 3.1386 11.8238 3.21829 11.8826 3.27705C11.9414 3.3358 12.021 3.36881 12.1041 3.36881C12.1656 3.36915 12.2257 3.38758 12.2768 3.42182C12.3279 3.45606 12.3678 3.50458 12.3915 3.56134C12.4152 3.6181 12.4217 3.68058 12.4101 3.741C12.3986 3.80141 12.3695 3.85709 12.3265 3.90108C12.2967 3.92997 12.2731 3.96453 12.2569 4.00272C12.2408 4.04091 12.2325 4.08196 12.2325 4.12342C12.2325 4.16489 12.2408 4.20593 12.2569 4.24412C12.2731 4.28231 12.2967 4.31687 12.3265 4.34576L12.8352 4.85445C12.8638 4.8841 12.898 4.90768 12.9359 4.92379C12.9739 4.9399 13.0146 4.9482 13.0558 4.9482C13.097 4.9482 13.1378 4.9399 13.1757 4.92379C13.2136 4.90768 13.2479 4.8841 13.2765 4.85445C13.3203 4.81031 13.3763 4.78021 13.4373 4.76799C13.4982 4.75576 13.5615 4.76197 13.6189 4.78582C13.6764 4.80966 13.7254 4.85007 13.7598 4.90189C13.7942 4.95371 13.8124 5.01459 13.8121 5.07679C13.8121 5.15989 13.8451 5.23957 13.9039 5.29833C13.9626 5.35708 14.0423 5.39009 14.1254 5.39009H14.8463C14.9294 5.39009 15.0091 5.35708 15.0679 5.29833C15.1266 5.23957 15.1596 5.15989 15.1596 5.07679C15.1593 5.01459 15.1775 4.95371 15.2119 4.90189C15.2463 4.85007 15.2954 4.80966 15.3528 4.78582C15.4103 4.76197 15.4735 4.75576 15.5345 4.76799C15.5955 4.78021 15.6515 4.81031 15.6953 4.85445C15.7239 4.8841 15.7582 4.90768 15.7961 4.92379C15.834 4.9399 15.8747 4.9482 15.9159 4.9482C15.9571 4.9482 15.9979 4.9399 16.0358 4.92379C16.0737 4.90768 16.108 4.8841 16.1366 4.85445L16.6453 4.34576C16.675 4.31687 16.6987 4.28231 16.7148 4.24412C16.731 4.20593 16.7393 4.16489 16.7393 4.12342C16.7393 4.08196 16.731 4.04091 16.7148 4.00272C16.6987 3.96453 16.675 3.92997 16.6453 3.90108C16.6023 3.85709 16.5732 3.80141 16.5616 3.741C16.5501 3.68058 16.5566 3.6181 16.5803 3.56134C16.604 3.50458 16.6439 3.45606 16.695 3.42182C16.7461 3.38758 16.8061 3.36915 16.8676 3.36881C16.9507 3.36881 17.0304 3.3358 17.0892 3.27705C17.1479 3.21829 17.1809 3.1386 17.1809 3.05551V2.33458C17.1809 2.25149 17.1479 2.1718 17.0892 2.11305C17.0304 2.05429 16.9507 2.02129 16.8676 2.02129Z" fill="#F8CF6D"/>
<path d="M14.4859 3.70564C15.0441 3.70564 15.4965 3.25316 15.4965 2.695C15.4965 2.13684 15.0441 1.68436 14.4859 1.68436C13.9277 1.68436 13.4753 2.13684 13.4753 2.695C13.4753 3.25316 13.9277 3.70564 14.4859 3.70564Z" fill="#FFFEFF"/>
<path d="M20.8865 8.44568V7.77192C20.8865 7.68257 20.851 7.59689 20.7878 7.53371C20.7246 7.47053 20.639 7.43504 20.5496 7.43504H20.3576C20.2845 7.4391 20.2122 7.41927 20.1514 7.37855C20.0906 7.33783 20.0447 7.27843 20.0207 7.20933C19.9907 7.14623 19.9811 7.07537 19.9932 7.00657C20.0053 6.93776 20.0384 6.87441 20.0881 6.82529L20.2228 6.68716C20.2544 6.65585 20.2795 6.61859 20.2966 6.57754C20.3137 6.53648 20.3225 6.49245 20.3225 6.44798C20.3225 6.40351 20.3137 6.35947 20.2966 6.31842C20.2795 6.27737 20.2544 6.24011 20.2228 6.20879L19.7512 5.73716C19.7199 5.70558 19.6826 5.68052 19.6416 5.66342C19.6005 5.64632 19.5565 5.63751 19.512 5.63751C19.4675 5.63751 19.4235 5.64632 19.3825 5.66342C19.3414 5.68052 19.3041 5.70558 19.2728 5.73716L19.1347 5.87191C19.0856 5.92158 19.0222 5.95474 18.9534 5.96681C18.8846 5.97888 18.8138 5.96926 18.7507 5.93929C18.6816 5.91526 18.6222 5.86939 18.5814 5.80861C18.5407 5.74783 18.5209 5.67545 18.525 5.60241V5.41375C18.525 5.32441 18.4895 5.23872 18.4263 5.17554C18.3631 5.11237 18.2774 5.07687 18.1881 5.07687H17.5177C17.4283 5.07687 17.3426 5.11237 17.2795 5.17554C17.2163 5.23872 17.1808 5.32441 17.1808 5.41375V5.60578C17.1849 5.67882 17.165 5.7512 17.1243 5.81198C17.0836 5.87276 17.0242 5.91863 16.9551 5.94266C16.892 5.97263 16.8211 5.98225 16.7523 5.97018C16.6835 5.95811 16.6202 5.92494 16.571 5.87528L16.4329 5.74053C16.4016 5.70895 16.3643 5.68389 16.3233 5.66679C16.2822 5.64969 16.2382 5.64088 16.1937 5.64088C16.1493 5.64088 16.1052 5.64969 16.0642 5.66679C16.0231 5.68389 15.9859 5.70895 15.9546 5.74053L15.4829 6.21216C15.4513 6.24348 15.4263 6.28074 15.4092 6.32179C15.3921 6.36284 15.3833 6.40688 15.3833 6.45135C15.3833 6.49582 15.3921 6.53985 15.4092 6.5809C15.4263 6.62196 15.4513 6.65922 15.4829 6.69053L15.6177 6.82865C15.6673 6.87778 15.7005 6.94113 15.7126 7.00994C15.7246 7.07874 15.715 7.1496 15.685 7.2127C15.661 7.2818 15.6151 7.3412 15.5544 7.38192C15.4936 7.42264 15.4212 7.44247 15.3482 7.43841H15.1595C15.0702 7.43841 14.9845 7.4739 14.9213 7.53708C14.8581 7.60026 14.8226 7.68594 14.8226 7.77529V8.44905C14.8226 8.5384 14.8581 8.62408 14.9213 8.68726C14.9845 8.75044 15.0702 8.78593 15.1595 8.78593H15.3515C15.4246 8.78187 15.497 8.8017 15.5577 8.84242C15.6185 8.88314 15.6644 8.94254 15.6884 9.01164C15.7184 9.07474 15.728 9.1456 15.7159 9.2144C15.7039 9.28321 15.6707 9.34656 15.621 9.39569L15.4863 9.53381C15.4547 9.56512 15.4297 9.60238 15.4125 9.64344C15.3954 9.68449 15.3866 9.72852 15.3866 9.77299C15.3866 9.81746 15.3954 9.8615 15.4125 9.90255C15.4297 9.9436 15.4547 9.98086 15.4863 10.0122L15.9579 10.4838C15.9892 10.5154 16.0265 10.5404 16.0675 10.5576C16.1086 10.5747 16.1526 10.5835 16.1971 10.5835C16.2416 10.5835 16.2856 10.5747 16.3267 10.5576C16.3677 10.5404 16.405 10.5154 16.4363 10.4838L16.5744 10.3491C16.6235 10.2994 16.6869 10.2662 16.7557 10.2542C16.8245 10.2421 16.8954 10.2517 16.9585 10.2817C17.0276 10.3057 17.087 10.3516 17.1277 10.4124C17.1684 10.4731 17.1882 10.5455 17.1842 10.6186V10.8038C17.1842 10.8932 17.2197 10.9789 17.2828 11.0421C17.346 11.1052 17.4317 11.1407 17.521 11.1407H18.1948C18.2842 11.1407 18.3698 11.1052 18.433 11.0421C18.4962 10.9789 18.5317 10.8932 18.5317 10.8038V10.6118C18.5276 10.5388 18.5475 10.4664 18.5882 10.4056C18.6289 10.3448 18.6883 10.299 18.7574 10.2749C18.8205 10.245 18.8914 10.2354 18.9602 10.2474C19.029 10.2595 19.0923 10.2927 19.1414 10.3423L19.2796 10.4771C19.3109 10.5086 19.3481 10.5337 19.3892 10.5508C19.4302 10.5679 19.4743 10.5767 19.5187 10.5767C19.5632 10.5767 19.6073 10.5679 19.6483 10.5508C19.6894 10.5337 19.7266 10.5086 19.7579 10.4771L20.2296 10.0054C20.2611 9.97412 20.2862 9.93686 20.3033 9.89581C20.3204 9.85476 20.3292 9.81073 20.3292 9.76625C20.3292 9.72178 20.3204 9.67775 20.3033 9.6367C20.2862 9.59565 20.2611 9.55839 20.2296 9.52707L20.0948 9.38895C20.0452 9.33982 20.012 9.27647 19.9999 9.20766C19.9879 9.13886 19.9975 9.068 20.0274 9.0049C20.0515 8.9358 20.0973 8.87641 20.1581 8.83569C20.2189 8.79496 20.2913 8.77513 20.3643 8.77919H20.5496C20.6384 8.7792 20.7236 8.74417 20.7866 8.68172C20.8497 8.61927 20.8856 8.53444 20.8865 8.44568Z" fill="#EE7231"/>
<path d="M17.8546 9.45616C18.5988 9.45616 19.2021 8.85285 19.2021 8.10863C19.2021 7.36442 18.5988 6.76111 17.8546 6.76111C17.1104 6.76111 16.507 7.36442 16.507 8.10863C16.507 8.85285 17.1104 9.45616 17.8546 9.45616Z" fill="#FFFEFF"/>
</svg>
