<svg width="37" height="31" viewBox="0 0 37 31" fill="none" xmlns="http://www.w3.org/2000/svg">
<path d="M18.4932 5.50831V9.85859H14.81C14.3758 9.85859 13.9595 10.0311 13.6525 10.338C13.3455 10.645 13.173 11.0614 13.173 11.4956V18.862C13.173 19.2961 13.3455 19.7125 13.6525 20.0195C13.9595 20.3265 14.3758 20.499 14.81 20.499H18.4932V24.8492C18.4938 25.98 18.1112 27.0776 17.4077 27.9629C16.7043 28.8482 15.7216 29.469 14.62 29.724C13.5183 29.979 12.3628 29.8532 11.3419 29.3669C10.321 28.8807 9.49503 28.0629 8.99872 27.0469C8.61438 27.1412 8.21991 27.1879 7.82418 27.186C7.13591 27.1903 6.45432 27.0509 5.82297 26.7768C4.92859 26.3872 4.16768 25.7446 3.63395 24.928C3.10022 24.1114 2.81698 23.1565 2.81911 22.181C2.82442 21.8312 2.86556 21.4829 2.94189 21.1415C2.11235 20.6474 1.44358 19.9238 1.01632 19.0579C0.58905 18.1921 0.421562 17.2211 0.534074 16.2621C0.646585 15.3032 1.03429 14.3973 1.65036 13.6539C2.26644 12.9104 3.08455 12.3613 4.00592 12.0726C3.38852 11.345 2.99236 10.4559 2.86428 9.51028C2.7362 8.56468 2.88155 7.60218 3.28314 6.73657C3.68474 5.87097 4.32579 5.13845 5.13051 4.62562C5.93522 4.1128 6.86995 3.84111 7.82418 3.84268C8.13314 3.8421 8.44146 3.87088 8.74498 3.92862C9.11886 2.80006 9.88256 1.84161 10.8991 1.22516C11.9157 0.608703 13.1186 0.374568 14.2922 0.564744C15.4658 0.754919 16.5332 1.35696 17.3031 2.26291C18.0729 3.16885 18.4949 4.31943 18.4932 5.50831Z" fill="#40E0D0"/>
<path opacity="0.4" d="M13.1034 28.9659C12.4008 28.4769 11.8368 27.8142 11.4665 27.0425C11.0821 27.1368 10.6877 27.1835 10.2919 27.1816C9.60366 27.1859 8.92206 27.0465 8.29072 26.7724C7.39826 26.3836 6.63865 25.7429 6.10507 24.9287C5.57149 24.1145 5.28712 23.1623 5.28686 22.1888C5.28678 21.8396 5.32244 21.4913 5.39326 21.1493C4.56404 20.654 3.89601 19.9291 3.4699 19.0622C3.0438 18.1953 2.87785 17.2236 2.99212 16.2645C3.10639 15.3054 3.49597 14.3998 4.11381 13.6573C4.73164 12.9148 5.55127 12.3672 6.47367 12.0805C5.85486 11.3544 5.45683 10.4664 5.32662 9.52128C5.19641 8.57622 5.33945 7.61362 5.73885 6.74726C6.13824 5.88089 6.7773 5.14696 7.5805 4.6322C8.3837 4.11744 9.31747 3.84337 10.2715 3.84236C10.5804 3.84178 10.8888 3.87056 11.1923 3.9283C11.4566 3.13223 11.9167 2.41529 12.5302 1.84326C13.1437 1.27122 13.891 0.862416 14.7036 0.654338C14.3025 0.551237 13.89 0.49899 13.4759 0.498825C12.4257 0.498958 11.4021 0.829424 10.5502 1.44344C9.69818 2.05745 9.06093 2.9239 8.72861 3.92012C8.42509 3.86237 8.11677 3.8336 7.80781 3.83417C6.85347 3.8344 5.91915 4.10791 5.11534 4.62237C4.31153 5.13682 3.67186 5.8707 3.27196 6.73722C2.87206 7.60373 2.72867 8.56665 2.85873 9.51208C2.9888 10.4575 3.38689 11.3459 4.00592 12.0723C3.08455 12.3609 2.26644 12.9101 1.65036 13.6535C1.03429 14.397 0.646585 15.3028 0.534074 16.2618C0.421562 17.2207 0.58905 18.1918 1.01632 19.0576C1.44358 19.9234 2.11235 20.6471 2.94189 21.1412C2.87106 21.4831 2.8354 21.8314 2.83548 22.1806C2.83295 23.1505 3.11247 24.1001 3.63998 24.9139C4.1675 25.7277 4.92026 26.3706 5.8066 26.7642C6.43795 27.0383 7.11954 27.1777 7.80781 27.1734C8.2085 27.1807 8.60854 27.1381 8.99872 27.0466C9.49899 28.0836 10.3437 28.9149 11.3886 29.3985C12.4334 29.8821 13.6138 29.9882 14.7281 29.6985C14.1469 29.5542 13.5964 29.306 13.1034 28.9659Z" fill="white"/>
<path d="M22.1764 9.85826H14.81C14.3758 9.85826 13.9594 10.0307 13.6524 10.3377C13.3454 10.6447 13.173 11.0611 13.173 11.4952V18.8617C13.173 19.2958 13.3454 19.7122 13.6524 20.0192C13.9594 20.3262 14.3758 20.4986 14.81 20.4986H22.1764C22.6105 20.4986 23.0269 20.3262 23.3339 20.0192C23.6409 19.7122 23.8134 19.2958 23.8134 18.8617V11.4952C23.8134 11.0611 23.6409 10.6447 23.3339 10.3377C23.0269 10.0307 22.6105 9.85826 22.1764 9.85826ZM19.7209 17.4293H17.2654C17.0483 17.4293 16.8402 17.3431 16.6867 17.1896C16.5332 17.0361 16.4469 16.8279 16.4469 16.6108V13.7461C16.4469 13.529 16.5332 13.3208 16.6867 13.1673C16.8402 13.0138 17.0483 12.9276 17.2654 12.9276H19.7209C19.938 12.9276 20.1462 13.0138 20.2997 13.1673C20.4532 13.3208 20.5394 13.529 20.5394 13.7461V16.6108C20.5394 16.8279 20.4532 17.0361 20.2997 17.1896C20.1462 17.3431 19.938 17.4293 19.7209 17.4293Z" fill="#633A82"/>
<path d="M19.721 12.9276H17.2655C16.8135 12.9276 16.447 13.294 16.447 13.7461V16.6108C16.447 17.0628 16.8135 17.4293 17.2655 17.4293H19.721C20.173 17.4293 20.5395 17.0628 20.5395 16.6108V13.7461C20.5395 13.294 20.173 12.9276 19.721 12.9276Z" fill="#F1FCFC"/>
<path d="M34.0446 21.1411C34.1154 21.4831 34.1511 21.8314 34.151 22.1806C34.1535 23.1504 33.874 24.1001 33.3465 24.9139C32.819 25.7277 32.0662 26.3705 31.1799 26.7642C30.5486 27.0383 29.867 27.1777 29.1787 27.1734C28.778 27.1807 28.378 27.1381 27.9878 27.0466C27.4915 28.0626 26.6655 28.8804 25.6446 29.3666C24.6237 29.8528 23.4682 29.9787 22.3665 29.7237C21.2649 29.4687 20.2822 28.8479 19.5788 27.9626C18.8753 27.0773 18.4927 25.9797 18.4933 24.8489V20.4986H22.1765C22.6107 20.4986 23.027 20.3262 23.334 20.0192C23.641 19.7122 23.8135 19.2958 23.8135 18.8617V11.4952C23.8135 11.0611 23.641 10.6447 23.334 10.3377C23.027 10.0307 22.6107 9.85825 22.1765 9.85825H18.4933V5.50797C18.4916 4.3191 18.9136 3.16852 19.6834 2.26257C20.4533 1.35663 21.5207 0.754583 22.6943 0.564408C23.8679 0.374233 25.0708 0.608367 26.0874 1.22482C27.1039 1.84128 27.8676 2.79973 28.2415 3.92829C28.545 3.87055 28.8534 3.84177 29.1623 3.84235C30.1165 3.84077 31.0513 4.11246 31.856 4.62529C32.6607 5.13811 33.3018 5.87063 33.7034 6.73624C34.105 7.60185 34.2503 8.56435 34.1222 9.50994C33.9941 10.4555 33.598 11.3447 32.9806 12.0723C33.9019 12.3609 34.7201 12.9101 35.3361 13.6535C35.9522 14.397 36.3399 15.3028 36.4524 16.2618C36.5649 17.2207 36.3974 18.1917 35.9702 19.0576C35.5429 19.9234 34.8741 20.6471 34.0446 21.1411Z" fill="#40E0D0"/>
<path opacity="0.2" d="M36.5 16.8441C36.4997 15.7772 36.1578 14.7384 35.5245 13.8797C34.8912 13.0211 33.9997 12.3877 32.9805 12.0723C33.5979 11.3447 33.9941 10.4555 34.1222 9.50995C34.2502 8.56435 34.1049 7.60185 33.7033 6.73624C33.3017 5.87064 32.6607 5.13812 31.8559 4.62529C31.0512 4.11247 30.1165 3.84078 29.1623 3.84235C28.8533 3.84178 28.545 3.87055 28.2415 3.92829C27.9091 2.93208 27.2719 2.06563 26.4199 1.45162C25.5679 0.837603 24.5444 0.507137 23.4942 0.507004C23.0798 0.507578 22.6672 0.561217 22.2665 0.66661C23.0776 0.875898 23.8232 1.28525 24.4352 1.85721C25.0472 2.42917 25.506 3.14547 25.7696 3.94057C26.0687 3.87948 26.3729 3.84659 26.6781 3.84235C27.6324 3.84078 28.5671 4.11247 29.3718 4.62529C30.1765 5.13812 30.8176 5.87064 31.2192 6.73624C31.6208 7.60185 31.7661 8.56435 31.638 9.50995C31.51 10.4555 31.1138 11.3447 30.4964 12.0723C31.4196 12.3575 32.2404 12.904 32.8595 13.6458C33.4787 14.3876 33.8697 15.2929 33.9852 16.2522C34.1008 17.2115 33.936 18.1837 33.5108 19.0513C33.0856 19.919 32.4181 20.6448 31.5891 21.1412C31.6599 21.4831 31.6956 21.8314 31.6955 22.1806C31.6952 23.1541 31.4109 24.1063 30.8773 24.9205C30.3437 25.7347 29.5841 26.3754 28.6916 26.7642C28.0603 27.0383 27.3787 27.1777 26.6904 27.1734C26.2952 27.1793 25.9007 27.1367 25.5159 27.0466C25.1981 27.6967 24.743 28.2702 24.182 28.7273C23.621 29.1845 22.9674 29.5144 22.2665 29.6944C22.6672 29.7998 23.0798 29.8534 23.4942 29.854C24.4308 29.8529 25.3483 29.5893 26.1425 29.093C26.9368 28.5968 27.5761 27.8878 27.9877 27.0466C28.3721 27.1409 28.7665 27.1876 29.1623 27.1857C29.8505 27.19 30.5321 27.0506 31.1635 26.7765C32.0559 26.3877 32.8155 25.747 33.3491 24.9328C33.8827 24.1186 34.1671 23.1664 34.1673 22.1929C34.1629 21.839 34.1217 21.4866 34.0446 21.1412C34.7912 20.6992 35.4101 20.0707 35.8406 19.3174C36.2711 18.564 36.4983 17.7117 36.5 16.8441Z" fill="black"/>
<path d="M27.9712 10.5049C28.9883 10.5049 29.8128 9.68037 29.8128 8.66328C29.8128 7.64619 28.9883 6.82167 27.9712 6.82167C26.9542 6.82167 26.1296 7.64619 26.1296 8.66328C26.1296 9.68037 26.9542 10.5049 27.9712 10.5049Z" fill="#633A82"/>
<path d="M28.798 23.5516C29.8151 23.5516 30.6396 22.7271 30.6396 21.71C30.6396 20.6929 29.8151 19.8684 28.798 19.8684C27.7809 19.8684 26.9564 20.6929 26.9564 21.71C26.9564 22.7271 27.7809 23.5516 28.798 23.5516Z" fill="#633A82"/>
<path d="M5.61028 20.0894C6.62737 20.0894 7.45188 19.2649 7.45188 18.2478C7.45188 17.2307 6.62737 16.4062 5.61028 16.4062C4.59319 16.4062 3.76868 17.2307 3.76868 18.2478C3.76868 19.2649 4.59319 20.0894 5.61028 20.0894Z" fill="#633A82"/>
<path d="M10.2756 8.92517C11.2927 8.92517 12.1172 8.10065 12.1172 7.08356C12.1172 6.06647 11.2927 5.24196 10.2756 5.24196C9.25847 5.24196 8.43396 6.06647 8.43396 7.08356C8.43396 8.10065 9.25847 8.92517 10.2756 8.92517Z" fill="#633A82"/>
<path d="M18.4932 24.8492C18.4938 25.98 18.1112 27.0776 17.4077 27.9629C16.7043 28.8482 15.7216 29.469 14.62 29.724C13.5183 29.979 12.3628 29.8532 11.3419 29.3669C10.321 28.8807 9.49503 28.0629 8.99872 27.0469C8.61438 27.1412 8.21991 27.1879 7.82418 27.186C7.13591 27.1903 6.45432 27.0509 5.82297 26.7768C4.92859 26.3872 4.16768 25.7446 3.63395 24.928C3.10022 24.1114 2.81698 23.1565 2.81911 22.181C2.82442 21.8312 2.86555 21.4829 2.94189 21.1415C2.11235 20.6474 1.44358 19.9238 1.01632 19.0579C0.58905 18.1921 0.421562 17.2211 0.534074 16.2621C0.646585 15.3032 1.03429 14.3973 1.65036 13.6539C2.26644 12.9104 3.08455 12.3613 4.00592 12.0726C3.38852 11.345 2.99236 10.4559 2.86428 9.51028C2.7362 8.56468 2.88155 7.60218 3.28314 6.73657C3.68474 5.87097 4.32579 5.13845 5.13051 4.62562C5.93522 4.1128 6.86995 3.84111 7.82418 3.84268C8.13314 3.8421 8.44146 3.87088 8.74498 3.92862C9.11886 2.80006 9.88256 1.84161 10.8991 1.22516C11.9157 0.608703 13.1186 0.374568 14.2922 0.564744C15.4658 0.754919 16.5332 1.35696 17.3031 2.26291C18.0729 3.16885 18.4949 4.31943 18.4932 5.50831" stroke="#192965" stroke-linecap="round" stroke-linejoin="round"/>
<path d="M22.1764 9.85826H14.81C14.3758 9.85826 13.9594 10.0307 13.6524 10.3377C13.3454 10.6447 13.173 11.0611 13.173 11.4952V18.8617C13.173 19.2958 13.3454 19.7122 13.6524 20.0192C13.9594 20.3262 14.3758 20.4986 14.81 20.4986H22.1764C22.6105 20.4986 23.0269 20.3262 23.3339 20.0192C23.6409 19.7122 23.8134 19.2958 23.8134 18.8617V11.4952C23.8134 11.0611 23.6409 10.6447 23.3339 10.3377C23.0269 10.0307 22.6105 9.85826 22.1764 9.85826ZM19.7209 17.4293H17.2654C17.0483 17.4293 16.8402 17.3431 16.6867 17.1896C16.5332 17.0361 16.4469 16.8279 16.4469 16.6108V13.7461C16.4469 13.529 16.5332 13.3208 16.6867 13.1673C16.8402 13.0138 17.0483 12.9276 17.2654 12.9276H19.7209C19.938 12.9276 20.1462 13.0138 20.2997 13.1673C20.4532 13.3208 20.5394 13.529 20.5394 13.7461V16.6108C20.5394 16.8279 20.4532 17.0361 20.2997 17.1896C20.1462 17.3431 19.938 17.4293 19.7209 17.4293Z" stroke="#192965" stroke-linecap="round" stroke-linejoin="round"/>
<path d="M19.721 12.9276H17.2655C16.8135 12.9276 16.447 13.294 16.447 13.7461V16.6108C16.447 17.0628 16.8135 17.4293 17.2655 17.4293H19.721C20.173 17.4293 20.5395 17.0628 20.5395 16.6108V13.7461C20.5395 13.294 20.173 12.9276 19.721 12.9276Z" stroke="#192965" stroke-linecap="round" stroke-linejoin="round"/>
<path d="M18.4933 5.50797C18.4916 4.3191 18.9136 3.16852 19.6834 2.26257C20.4533 1.35663 21.5207 0.754583 22.6943 0.564408C23.8679 0.374233 25.0708 0.608367 26.0874 1.22482C27.1039 1.84128 27.8676 2.79973 28.2415 3.92829C28.545 3.87055 28.8534 3.84177 29.1623 3.84235C30.3187 3.83871 31.4405 4.23658 32.3361 4.96804C33.2318 5.69949 33.8458 6.71916 34.0733 7.85295M33.8727 23.8708C33.6432 24.5103 33.2861 25.0965 32.8232 25.5938C32.3603 26.0912 31.8013 26.4894 31.1799 26.7642C30.5486 27.0383 29.867 27.1777 29.1787 27.1734C28.778 27.1807 28.378 27.1381 27.9878 27.0466C27.4915 28.0626 26.6655 28.8804 25.6446 29.3666C24.6237 29.8528 23.4682 29.9787 22.3665 29.7237C21.2649 29.4687 20.2822 28.8479 19.5788 27.9626C18.8753 27.0773 18.4927 25.9797 18.4933 24.8489M35.0718 13.3491C35.5985 13.8893 35.9961 14.5417 36.2346 15.2574C36.4732 15.9731 36.5466 16.7336 36.4493 17.4817C36.3521 18.2299 36.0867 18.9463 35.673 19.5772C35.2594 20.2082 34.7083 20.7372 34.061 21.1248C34.1318 21.4667 34.1675 21.815 34.1674 22.1643C34.1691 22.7406 34.0694 23.3127 33.8727 23.8544M34.0692 7.85295C34.2181 8.59279 34.1976 9.35676 34.009 10.0875C33.8205 10.8183 33.4689 11.4968 32.9806 12.0723M28.7981 10.3084C30.5906 12.723 32.9806 12.0723 32.9806 12.0723" stroke="#192965" stroke-linecap="round" stroke-linejoin="round"/>
<path d="M27.9712 10.5049C28.9883 10.5049 29.8128 9.68037 29.8128 8.66328C29.8128 7.64619 28.9883 6.82167 27.9712 6.82167C26.9542 6.82167 26.1296 7.64619 26.1296 8.66328C26.1296 9.68037 26.9542 10.5049 27.9712 10.5049Z" stroke="#192965" stroke-linecap="round" stroke-linejoin="round"/>
<path d="M28.798 23.5516C29.8151 23.5516 30.6396 22.7271 30.6396 21.71C30.6396 20.6929 29.8151 19.8684 28.798 19.8684C27.7809 19.8684 26.9564 20.6929 26.9564 21.71C26.9564 22.7271 27.7809 23.5516 28.798 23.5516Z" stroke="#192965" stroke-linecap="round" stroke-linejoin="round"/>
<path d="M5.61028 20.0894C6.62737 20.0894 7.45188 19.2649 7.45188 18.2478C7.45188 17.2307 6.62737 16.4062 5.61028 16.4062C4.59319 16.4062 3.76868 17.2307 3.76868 18.2478C3.76868 19.2649 4.59319 20.0894 5.61028 20.0894Z" stroke="#192965" stroke-linecap="round" stroke-linejoin="round"/>
<path d="M10.2756 8.92517C11.2927 8.92517 12.1172 8.10065 12.1172 7.08356C12.1172 6.06647 11.2927 5.24196 10.2756 5.24196C9.25847 5.24196 8.43396 6.06647 8.43396 7.08356C8.43396 8.10065 9.25847 8.92517 10.2756 8.92517Z" stroke="#192965" stroke-linecap="round" stroke-linejoin="round"/>
<path d="M15.8044 7.43553V9.85826" stroke="#192965" stroke-linecap="round" stroke-linejoin="round"/>
<path d="M18.4933 7.43553V9.85826" stroke="#192965" stroke-linecap="round" stroke-linejoin="round"/>
<path d="M21.182 7.43553V9.85826" stroke="#192965" stroke-linecap="round" stroke-linejoin="round"/>
<path d="M23.8134 17.5275H26.2361" stroke="#192965" stroke-linecap="round" stroke-linejoin="round"/>
<path d="M23.8134 14.8388H26.2361" stroke="#192965" stroke-linecap="round" stroke-linejoin="round"/>
<path d="M23.8134 12.15H26.2361" stroke="#192965" stroke-linecap="round" stroke-linejoin="round"/>
<path d="M10.7257 17.5521H13.1484" stroke="#192965" stroke-linecap="round" stroke-linejoin="round"/>
<path d="M10.7257 14.8633H13.1484" stroke="#192965" stroke-linecap="round" stroke-linejoin="round"/>
<path d="M10.7257 12.1746H13.1484" stroke="#192965" stroke-linecap="round" stroke-linejoin="round"/>
<path d="M15.8044 20.4986V22.9214" stroke="#192965" stroke-linecap="round" stroke-linejoin="round"/>
<path d="M18.4933 20.4986V22.9214" stroke="#192965" stroke-linecap="round" stroke-linejoin="round"/>
<path d="M21.182 20.4986V22.9214" stroke="#192965" stroke-linecap="round" stroke-linejoin="round"/>
<path d="M4.00598 12.0723C4.00598 12.0723 7.63189 13.2509 6.40416 16.574M9.33436 5.50389C8.97369 5.05568 8.76704 4.50318 8.74504 3.9283M8.99877 27.0466C8.99877 27.0466 8.22121 24.4519 9.48987 22.684M29.2564 23.4902C29.2155 25.2909 27.9878 27.0425 27.9878 27.0425M34.0446 21.1412C34.0446 21.1412 31.54 20.3513 32.9642 17.1592M8.76141 25.2663C8.76141 25.2663 11.8635 27.2757 13.9916 24.5256M27.4967 27.8651C27.4967 27.8651 25.7124 24.7139 22.7658 27.0466" stroke="#192965" stroke-linecap="round" stroke-linejoin="round"/>
</svg>
