<svg width="13" height="32" viewBox="0 0 13 32" fill="none" xmlns="http://www.w3.org/2000/svg">
<path d="M5 22.9154V17.9154H8V22.9099" fill="#34485C"/>
<path fill-rule="evenodd" clip-rule="evenodd" d="M12 0V9.5H13V0H12ZM0 0V9.5H1V0H0Z" fill="#2B4255"/>
<path d="M2.16666 4.99988H10.8333L13 9.49988L11 17.9999H2L0 9.49988L2.16666 4.99988Z" fill="#F8B84E"/>
<path d="M7.94726 20.9178L4.99999 22.9198C7.03058 23.0399 8.61642 24.7157 8.61913 26.744C8.61906 28.8629 6.89632 30.5804 4.77148 30.58C3.59749 30.5801 2.48768 30.0457 1.75781 29.1288C2.76104 30.771 4.54613 31.7734 6.4707 31.7753C9.52408 31.7754 11.9995 29.3008 12 26.248C12.001 23.7623 10.343 21.5815 7.94726 20.9178Z" fill="#34485C"/>
<path fill-rule="evenodd" clip-rule="evenodd" d="M4.96289 5.00037L0.8418 7.75244L0 9.50037L0.00399971 9.5144L6.76377 5.00073H4.96298L4.96289 5.00037ZM8.88672 5.00037L0.22852 10.4731L0.47071 11.5043L10.7539 5.00037H8.88672ZM11.2578 5.88135L0.70899 12.514L0.95118 13.5433L11.6934 6.78748L11.2578 5.88135ZM12.127 7.68604L1.18555 14.5414L1.42774 15.5688L12.5645 8.59424L12.127 7.68604ZM12.9883 9.47498L1.66993 16.5942L1.91211 17.6235L12.6836 10.8481L13 9.50037L12.9883 9.47534L12.9883 9.47498ZM12.3809 12.1351L3.21289 18.0004H5.07227L12.0508 13.5336L12.3809 12.1351ZM11.7461 14.8324L7.17578 18.0004H8.93164L11.4023 16.2875L11.7461 14.8324Z" fill="#2B4255"/>
<path d="M8.49806 22.5331C8.39025 22.5399 8.28751 22.5812 8.20521 22.6512C8.12291 22.7212 8.06548 22.816 8.04152 22.9213C8.01755 23.0267 8.02833 23.1369 8.07226 23.2355C8.11618 23.3342 8.19087 23.416 8.28517 23.4687C9.22786 24.0129 9.86379 24.9637 10.0059 26.0429C10.1479 27.1221 9.77947 28.2049 9.00978 28.9746C8.96171 29.0206 8.92332 29.0758 8.89687 29.1369C8.87041 29.198 8.85641 29.2637 8.8557 29.3303C8.85499 29.3968 8.86758 29.4628 8.89273 29.5245C8.91787 29.5861 8.95507 29.6421 9.00214 29.6892C9.04921 29.7362 9.10521 29.7735 9.16685 29.7987C9.22849 29.8238 9.29452 29.8364 9.36109 29.8356C9.42765 29.8349 9.4934 29.821 9.55449 29.7945C9.61557 29.768 9.67076 29.7297 9.71681 29.6816C10.7057 28.6927 11.1786 27.2987 10.9961 25.9121C10.8136 24.5255 9.99638 23.3028 8.78517 22.6035C8.6987 22.5517 8.59863 22.5273 8.49806 22.5334V22.5331Z" fill="#576D7E"/>
<path d="M6 17.9999H7C7.554 17.9999 8 18.2229 8 18.4999C8 18.7769 7.554 18.9999 7 18.9999H6C5.446 18.9999 5 18.7769 5 18.4999C5 18.2229 5.446 17.9999 6 17.9999Z" fill="#2B4255"/>
</svg>
