<svg width="35" height="35" viewBox="0 0 35 35" fill="none" xmlns="http://www.w3.org/2000/svg">
<path d="M34.9907 22.1918C34.9856 23.1846 34.5876 24.135 33.8838 24.8352C33.18 25.5354 32.2275 25.9285 31.2347 25.9285V18.4294C32.2314 18.4311 33.1868 18.8282 33.891 19.5336C34.5952 20.239 34.9907 21.195 34.9907 22.1918ZM22.4344 16.0706C22.6843 20.0068 22.155 23.9535 20.8769 27.6847C20.8064 27.9126 20.6667 28.1128 20.4771 28.2575C20.2876 28.4023 20.0577 28.4843 19.8193 28.4923H7.23737C6.99558 28.4899 6.76057 28.412 6.56521 28.2695C6.36984 28.127 6.22389 27.9271 6.14775 27.6975C4.87581 23.9649 4.3467 20.0194 4.59024 16.0835C4.60433 15.9223 4.58512 15.76 4.53381 15.6066C4.4825 15.4532 4.40018 15.312 4.29197 15.1918C4.18376 15.0715 4.05198 14.9749 3.90481 14.9077C3.75765 14.8406 3.59825 14.8045 3.43652 14.8016H2.18666C1.96407 14.7936 1.74782 14.7254 1.56095 14.6042C1.37409 14.483 1.22362 14.3133 1.12559 14.1133C1.02757 13.9133 0.985659 13.6905 1.00433 13.4685C1.02301 13.2466 1.10157 13.0339 1.23164 12.8531C4.32648 8.24463 8.28858 4.28254 12.897 1.18769C13.0789 1.06535 13.2931 1 13.5123 1C13.7315 1 13.9457 1.06535 14.1276 1.18769C18.7337 4.28318 22.6936 8.24524 25.7866 12.8531C25.9094 13.0328 25.9824 13.2419 25.9981 13.459C26.0137 13.6761 25.9715 13.8935 25.8757 14.089C25.7799 14.2845 25.634 14.4511 25.4528 14.5717C25.2716 14.6924 25.0617 14.7629 24.8444 14.7759H23.5625C23.4021 14.783 23.2448 14.8227 23.1001 14.8924C22.9555 14.9621 22.8265 15.0605 22.721 15.1816C22.6155 15.3026 22.5357 15.4439 22.4865 15.5967C22.4372 15.7495 22.4195 15.9108 22.4344 16.0706Z" fill="#FFC03D"/>
<path d="M9.47424 28.4923H7.28217C7.03824 28.4918 6.80076 28.414 6.60383 28.27C6.40691 28.1261 6.26067 27.9234 6.18614 27.6911C4.9023 23.9545 4.36865 20.0012 4.6158 16.0578C4.62897 15.8964 4.6089 15.7339 4.55685 15.5805C4.50479 15.4271 4.42185 15.2859 4.31314 15.1658C4.20443 15.0457 4.07226 14.9491 3.92479 14.8821C3.77731 14.815 3.61766 14.7789 3.45568 14.7759H2.17377C1.95592 14.7639 1.74518 14.6942 1.56312 14.574C1.38107 14.4538 1.23426 14.2873 1.13774 14.0916C1.04121 13.8959 0.998435 13.6781 1.0138 13.4605C1.02916 13.2429 1.1021 13.0332 1.22516 12.8531C4.30108 8.30771 8.21698 4.39181 12.7623 1.31589C9.9229 6.84091 7.3655 15.7502 9.47424 28.4923Z" fill="#FFD180"/>
<path d="M22.4344 16.0706C22.6843 20.0068 22.155 23.9535 20.8769 27.6847C20.8064 27.9126 20.6667 28.1128 20.4771 28.2575C20.2876 28.4022 20.0577 28.4843 19.8193 28.4923H7.23738C6.99558 28.4899 6.76057 28.412 6.56521 28.2695C6.36984 28.127 6.22389 27.9271 6.14775 27.6975C4.87581 23.9649 4.3467 20.0194 4.59024 16.0835C4.60433 15.9223 4.58512 15.76 4.53381 15.6066C4.4825 15.4532 4.40018 15.312 4.29197 15.1918C4.18376 15.0715 4.05198 14.9749 3.90482 14.9077C3.75765 14.8406 3.59825 14.8045 3.43652 14.8016H2.18666C1.96407 14.7936 1.74782 14.7254 1.56095 14.6042C1.37409 14.483 1.22362 14.3133 1.12559 14.1133C1.02757 13.9133 0.985659 13.6905 1.00433 13.4685C1.02301 13.2466 1.10157 13.0339 1.23164 12.8531C4.32648 8.24463 8.28858 4.28254 12.897 1.18769C13.0789 1.06535 13.2931 1 13.5123 1C13.7315 1 13.9457 1.06535 14.1276 1.18769C18.7337 4.28318 22.6936 8.24524 25.7866 12.8531C25.9094 13.0328 25.9824 13.2419 25.9981 13.459C26.0137 13.6761 25.9715 13.8935 25.8757 14.089C25.7799 14.2845 25.634 14.4511 25.4528 14.5717C25.2716 14.6924 25.0617 14.7629 24.8444 14.7759H23.5625C23.4021 14.783 23.2448 14.8227 23.1001 14.8924C22.9555 14.9621 22.8265 15.0605 22.721 15.1816C22.6155 15.3026 22.5357 15.4439 22.4865 15.5967C22.4372 15.7495 22.4195 15.9108 22.4344 16.0706V16.0706Z" stroke="#293149" stroke-width="2" stroke-linecap="round" stroke-linejoin="round"/>
<path d="M17.6851 26.4605H14.1663V33.1328H17.6851V26.4605Z" fill="#FFD180"/>
<path d="M31.2346 15.3079V29.0756C31.2329 29.4746 31.0737 29.8567 30.7915 30.1388C30.5094 30.4209 30.1273 30.5801 29.7283 30.5818H28.1965C27.8877 30.5802 27.5864 30.4865 27.3312 30.3126L22.2035 26.7297C21.9483 26.5558 21.647 26.4621 21.3382 26.4605H13.6724C13.2741 26.4588 12.8926 26.2994 12.6115 26.0171C12.3304 25.7348 12.1726 25.3526 12.1726 24.9543V19.4228C12.1726 19.025 12.3306 18.6436 12.6119 18.3623C12.8932 18.081 13.2747 17.923 13.6724 17.923H21.3254C21.6353 17.9223 21.9375 17.8261 22.1907 17.6474L27.3183 14.0709C27.5721 13.8941 27.8743 13.8 28.1836 13.8017H29.7155C29.9144 13.8 30.1116 13.8377 30.2959 13.9126C30.4801 13.9876 30.6477 14.0982 30.7889 14.2383C30.9301 14.3783 31.0422 14.5449 31.1187 14.7285C31.1952 14.9121 31.2346 15.109 31.2346 15.3079Z" fill="#5C97E3"/>
<path d="M17.6851 28.8897V33.1328H14.1663V31.3253C16.6916 31.4407 17.6851 28.8897 17.6851 28.8897Z" fill="#FFC03D"/>
<path d="M31.2348 15.3079V29.0756C31.2331 29.4746 31.0739 29.8567 30.7918 30.1388C30.5097 30.4209 30.1275 30.5801 29.7286 30.5818H28.1967C27.8879 30.5802 27.5866 30.4865 27.3314 30.3126L23.428 27.5886C28.2544 24.7299 29.4465 17.8589 29.7157 13.8017C29.9146 13.8 30.1119 13.8377 30.2961 13.9126C30.4803 13.9876 30.6479 14.0982 30.7891 14.2383C30.9303 14.3783 31.0424 14.5449 31.1189 14.7285C31.1954 14.9121 31.2348 15.109 31.2348 15.3079Z" fill="#4A89DC"/>
<path d="M17.6851 26.4605H14.1663V33.1328H17.6851V26.4605Z" stroke="#293149" stroke-width="2" stroke-linecap="round" stroke-linejoin="round"/>
<path d="M31.2346 15.3079V29.0756C31.2329 29.4746 31.0737 29.8567 30.7915 30.1388C30.5094 30.4209 30.1273 30.5801 29.7283 30.5818H28.1965C27.8877 30.5802 27.5864 30.4865 27.3312 30.3126L22.2035 26.7297C21.9483 26.5558 21.647 26.4621 21.3382 26.4605H13.6724C13.2741 26.4588 12.8926 26.2994 12.6115 26.0171C12.3304 25.7348 12.1726 25.3526 12.1726 24.9543V19.4228C12.1726 19.025 12.3306 18.6436 12.6119 18.3623C12.8932 18.081 13.2747 17.923 13.6724 17.923H21.3254C21.6353 17.9223 21.9375 17.8261 22.1907 17.6474L27.3183 14.0709C27.5721 13.8941 27.8743 13.8 28.1836 13.8017H29.7155C29.9144 13.8 30.1116 13.8377 30.2959 13.9126C30.4801 13.9876 30.6477 14.0982 30.7889 14.2383C30.9301 14.3783 31.0422 14.5449 31.1187 14.7285C31.1952 14.9121 31.2346 15.109 31.2346 15.3079Z" stroke="#293149" stroke-width="2" stroke-linecap="round" stroke-linejoin="round"/>
<path d="M34.9906 22.1918C34.9855 23.1846 34.5876 24.135 33.8837 24.8352C33.1799 25.5354 32.2274 25.9285 31.2346 25.9285V18.4294C32.2314 18.431 33.1867 18.8282 33.8909 19.5336C34.5951 20.239 34.9906 21.195 34.9906 22.1918V22.1918Z" stroke="#293149" stroke-width="2" stroke-linecap="round" stroke-linejoin="round"/>
</svg>
