<svg width="28" height="28" viewBox="0 0 28 28" fill="none" xmlns="http://www.w3.org/2000/svg">
<g clip-path="url(#clip0_4_271)">
<path d="M26.4549 28C27.3083 28 28.0002 27.308 28.0002 26.4547V1.54533C28.0002 0.691673 27.3082 0 26.4549 0H1.54569C0.692039 0 0.000366211 0.691778 0.000366211 1.54533V26.4546C0.000366211 27.308 0.692039 27.9999 1.54569 27.9999H26.4549V28Z" fill="#485A96"/>
<path d="M19.3195 28V17.1569H22.9591L23.504 12.9311H19.3194V10.2332C19.3194 9.0097 19.6591 8.17598 21.4136 8.17598L23.6513 8.17493V4.39544C23.2643 4.34403 21.9359 4.22894 20.3907 4.22894C17.1644 4.22894 14.9556 6.19821 14.9556 9.81478V12.9311H11.3067V17.1569H14.9556V27.9999H19.3195V28Z" fill="white"/>
</g>
<defs>
<clipPath id="clip0_4_271">
<rect width="28" height="28" fill="white"/>
</clipPath>
</defs>
</svg>
