<svg width="29" height="29" viewBox="0 0 29 29" fill="none" xmlns="http://www.w3.org/2000/svg">
<g clip-path="url(#clip0_4_266)">
<path d="M28.9847 14.7713C28.9847 13.5832 28.886 12.7162 28.6725 11.8171H14.7888V17.1796H22.9382C22.774 18.5123 21.8867 20.5193 19.9151 21.8679L19.8874 22.0474L24.2772 25.3706L24.5813 25.4003C27.3744 22.8795 28.9847 19.1706 28.9847 14.7713Z" fill="#4285F4"/>
<path d="M14.7889 28.9004C18.7814 28.9004 22.1331 27.6158 24.5814 25.4002L19.9151 21.8679C18.6664 22.7188 16.9905 23.3129 14.7889 23.3129C10.8785 23.3129 7.55954 20.7922 6.37644 17.3081L6.20303 17.3225L1.63849 20.7745L1.5788 20.9366C4.01047 25.657 9.00532 28.9004 14.7889 28.9004Z" fill="#34A853"/>
<path d="M6.37645 17.3081C6.06428 16.409 5.88361 15.4456 5.88361 14.4502C5.88361 13.4547 6.06428 12.4914 6.36003 11.5922L6.35176 11.4008L1.73002 7.89331L1.5788 7.9636C0.576595 9.92243 0.00152588 12.1221 0.00152588 14.4502C0.00152588 16.7783 0.576595 18.9778 1.5788 20.9367L6.37645 17.3081Z" fill="#FBBC05"/>
<path d="M14.7889 5.58737C17.5655 5.58737 19.4386 6.75943 20.5066 7.7389L24.6799 3.75705C22.1168 1.42897 18.7814 0 14.7889 0C9.00532 0 4.01047 3.24324 1.5788 7.9636L6.36002 11.5923C7.55954 8.10816 10.8785 5.58737 14.7889 5.58737Z" fill="#EB4335"/>
</g>
<defs>
<clipPath id="clip0_4_266">
<rect width="29" height="29" fill="white"/>
</clipPath>
</defs>
</svg>
