<svg width="21" height="23" viewBox="0 0 21 23" fill="none" xmlns="http://www.w3.org/2000/svg">
<path d="M16.2668 14.3676L13.9042 16.6616C12.6893 17.7799 11.262 18.6108 9.71797 19.0987L10.3448 22.1871C10.3769 22.3447 10.4436 22.4923 10.5395 22.6177C10.6355 22.7432 10.7581 22.8431 10.8973 22.9093C11.0366 22.9755 11.1887 23.0062 11.3412 22.999C11.4938 22.9917 11.6426 22.9466 11.7757 22.8674L15.579 20.6023C16.1143 20.2589 16.5324 19.7448 16.7731 19.1341C17.0137 18.5235 17.0645 17.8479 16.9181 17.2049L16.2668 14.3676ZM6.06934 8.35579L8.10348 5.80556L5.56671 5.15925C4.94999 4.93216 4.27629 4.94841 3.67003 5.20499C3.06378 5.46157 2.56593 5.94114 2.26845 6.55513L0.125729 10.5657C0.0506507 10.7061 0.00792358 10.8633 0.00100063 11.0244C-0.00592232 11.1856 0.0231531 11.3462 0.0858772 11.4933C0.148601 11.6403 0.243214 11.7698 0.36207 11.8711C0.480926 11.9724 0.62069 12.0428 0.770068 12.0766L3.76256 12.7539C4.25867 11.1459 5.04168 9.65297 6.06934 8.35579ZM15.2901 8.39731C15.5791 8.39731 15.8615 8.30684 16.1017 8.13735C16.342 7.96785 16.5292 7.72693 16.6398 7.44507C16.7503 7.1632 16.7793 6.85305 16.7229 6.55382C16.6665 6.2546 16.5274 5.97974 16.3231 5.76401C16.1188 5.54828 15.8585 5.40137 15.5751 5.34185C15.2918 5.28233 14.998 5.31287 14.7311 5.42963C14.4642 5.54638 14.236 5.74409 14.0755 5.99776C13.915 6.25143 13.8293 6.54967 13.8293 6.85476C13.8295 7.26382 13.9834 7.65609 14.2573 7.94534C14.5313 8.2346 14.9028 8.39716 15.2901 8.39731Z" fill="#6563FF"/>
<path d="M20.6254 1.09024C20.5794 0.916485 20.4878 0.757988 20.3601 0.630931C20.2324 0.503875 20.0731 0.412811 19.8985 0.367038C17.807 -0.173911 15.6044 -0.115904 13.5446 0.534373C11.4847 1.18465 9.65145 2.40074 8.25596 4.04252L4.9896 7.90126C3.35787 9.8377 2.32273 12.2017 2.00852 14.7093C1.98837 14.8634 2.00406 15.02 2.05438 15.1672C2.1047 15.3143 2.18831 15.4479 2.29876 15.5578L5.45957 18.7028C5.5542 18.797 5.66657 18.8718 5.79026 18.9228C5.91395 18.9738 6.04652 19 6.18041 19C6.20979 19 6.23916 18.9985 6.26903 18.996C8.82795 18.7856 11.2529 17.7694 13.192 16.0948L16.9268 12.6779C18.5827 11.293 19.8094 9.46883 20.4642 7.41748C21.1189 5.36613 21.1748 3.17197 20.6254 1.09024ZM14.6431 7.94218C14.3406 7.94218 14.0449 7.85293 13.7934 7.68573C13.5419 7.51852 13.3459 7.28086 13.2301 7.00281C13.1144 6.72475 13.0841 6.41879 13.1431 6.12361C13.2021 5.82843 13.3478 5.55729 13.5617 5.34447C13.7755 5.13166 14.0481 4.98673 14.3447 4.92802C14.6414 4.8693 14.9489 4.89944 15.2284 5.01461C15.5078 5.12978 15.7467 5.32482 15.9147 5.57507C16.0828 5.82531 16.1725 6.11951 16.1725 6.42048C16.1723 6.82401 16.0111 7.21098 15.7244 7.49632C15.4376 7.78167 15.0487 7.94204 14.6431 7.94218Z" fill="#B2B1FF"/>
</svg>
