<svg width="12" height="13" viewBox="0 0 12 13" fill="none" xmlns="http://www.w3.org/2000/svg">
<path d="M11.5008 7.94567C11.3125 7.75961 11.1631 7.53832 11.0615 7.29459C10.9598 7.05086 10.9078 6.78953 10.9085 6.52572V4.87398C10.9085 3.58132 10.3913 2.34161 9.47075 1.42756C8.55017 0.513507 7.30161 0 5.99973 0C4.69784 0 3.44928 0.513507 2.52871 1.42756C1.60814 2.34161 1.09097 3.58132 1.09097 4.87398V6.52572C1.09166 6.78953 1.03967 7.05086 0.937999 7.29459C0.836329 7.53832 0.686998 7.75961 0.498643 7.94567C0.260553 8.18205 0.0984086 8.48323 0.0327162 8.81111C-0.0329763 9.13899 0.000734106 9.47885 0.129584 9.78771C0.258434 10.0966 0.476636 10.3605 0.756593 10.5463C1.03655 10.732 1.36569 10.8311 1.70238 10.8311H3.32718C3.45236 11.4432 3.78682 11.9935 4.27388 12.3888C4.76095 12.7841 5.37067 13 5.99973 13C6.62879 13 7.23851 12.7841 7.72557 12.3888C8.21264 11.9935 8.54709 11.4432 8.67228 10.8311H10.2976C10.6343 10.8311 10.9634 10.732 11.2434 10.5463C11.5234 10.3605 11.7416 10.0966 11.8704 9.78771C11.9993 9.47885 12.033 9.13899 11.9673 8.81111C11.9016 8.48323 11.7389 8.18205 11.5008 7.94567ZM5.99973 11.9142C5.66252 11.9128 5.33397 11.808 5.05905 11.6141C4.78412 11.4202 4.57623 11.1467 4.46383 10.8311H7.53562C7.42322 11.1467 7.21534 11.4202 6.94041 11.6141C6.66548 11.808 6.33694 11.9128 5.99973 11.9142ZM10.2971 9.74796H1.70238C1.5814 9.74804 1.46312 9.71247 1.36251 9.64577C1.26189 9.57907 1.18347 9.48423 1.13716 9.37325C1.09086 9.26228 1.07875 9.14016 1.10237 9.02235C1.12599 8.90454 1.18428 8.79633 1.26986 8.71143C1.55983 8.42505 1.78974 8.08442 1.94627 7.70925C2.1028 7.33408 2.18285 6.93181 2.1818 6.52572V4.87398C2.1818 3.86858 2.58405 2.90436 3.30005 2.19343C4.01605 1.4825 4.98715 1.08311 5.99973 1.08311C7.0123 1.08311 7.98341 1.4825 8.69941 2.19343C9.41541 2.90436 9.81765 3.86858 9.81765 4.87398V6.52572C9.8166 6.93181 9.89666 7.33408 10.0532 7.70925C10.2097 8.08442 10.4396 8.42505 10.7296 8.71143C10.8152 8.79633 10.8735 8.90454 10.8971 9.02235C10.9207 9.14016 10.9086 9.26228 10.8623 9.37325C10.816 9.48423 10.7376 9.57907 10.6369 9.64577C10.5363 9.71247 10.4181 9.74804 10.2971 9.74796Z" fill="white"/>
</svg>
