<svg width="39" height="27" viewBox="0 0 39 27" fill="none" xmlns="http://www.w3.org/2000/svg">
<path d="M38.6202 10.0515C37.6794 9.44829 36.5605 9.16373 35.4367 9.24186C34.885 9.24505 34.3345 9.29214 33.7907 9.38266C33.6434 8.55342 33.3195 7.76333 32.8397 7.06313C32.36 6.36294 31.7351 5.76811 31.0051 5.31688L30.4444 5L30.0826 5.51042C29.6267 6.20342 29.2906 6.96448 29.0878 7.76331C28.8948 8.47053 28.853 9.20876 28.965 9.93231C29.0771 10.6559 29.3404 11.3494 29.7389 11.9699C28.8451 12.3677 27.881 12.5948 26.8991 12.6387H1.21415C0.892743 12.6387 0.584507 12.763 0.357238 12.9841C0.129969 13.2053 0.00228167 13.5052 0.00226099 13.818C-0.0331223 16.0083 0.347062 18.1862 1.12373 20.2422C1.82635 22.2669 3.20076 24.0067 5.03072 25.1881C7.68262 26.4935 10.6355 27.1118 13.6044 26.9834C15.2 26.9833 16.7923 26.8419 18.3616 26.561C20.5487 26.1756 22.6527 25.4317 24.5839 24.3609C26.1728 23.4639 27.6021 22.3227 28.8164 20.9815C30.6164 18.9259 32.0197 16.5705 32.9586 14.0291H33.3204C34.1203 14.0612 34.9187 13.9359 35.6678 13.6607C36.4168 13.3855 37.101 12.966 37.6796 12.4275C38.1834 11.9635 38.5782 11.3992 38.8372 10.773L39 10.3155L38.6202 10.0515Z" fill="#6563FF"/>
<path d="M3.30524 11.9997H6.71663C6.75681 12 6.79665 11.9926 6.83384 11.9779C6.87103 11.9632 6.90482 11.9415 6.93323 11.914C6.96165 11.8865 6.98412 11.8538 6.99933 11.8178C7.01455 11.7819 7.0222 11.7433 7.02186 11.7045V8.75232C7.0222 8.71346 7.01455 8.67492 6.99933 8.63895C6.98412 8.60298 6.96165 8.5703 6.93323 8.54281C6.90482 8.51533 6.87103 8.4936 6.83384 8.47888C6.79665 8.46416 6.75681 8.45675 6.71663 8.45708H3.30524C3.26506 8.45675 3.22521 8.46416 3.18802 8.47888C3.15083 8.4936 3.11705 8.51533 3.08863 8.54281C3.06022 8.5703 3.03775 8.60298 3.02254 8.63895C3.00732 8.67492 2.99966 8.71346 3.00001 8.75232V11.7045C3.00228 11.7821 3.03516 11.8559 3.09192 11.9108C3.14868 11.9657 3.225 11.9975 3.30524 11.9997ZM8.00938 11.9997H11.4208C11.4609 12 11.5008 11.9926 11.538 11.9779C11.5752 11.9632 11.609 11.9415 11.6374 11.914C11.6658 11.8865 11.6883 11.8538 11.7035 11.8178C11.7187 11.7819 11.7263 11.7433 11.726 11.7045V8.75232C11.7263 8.71346 11.7187 8.67492 11.7035 8.63895C11.6883 8.60298 11.6658 8.5703 11.6374 8.54281C11.609 8.51533 11.5752 8.4936 11.538 8.47888C11.5008 8.46416 11.4609 8.45675 11.4208 8.45708H8.00938C7.9692 8.45675 7.92935 8.46416 7.89216 8.47888C7.85497 8.4936 7.82118 8.51533 7.79277 8.54281C7.76436 8.5703 7.74189 8.60298 7.72667 8.63895C7.71146 8.67492 7.7038 8.71346 7.70415 8.75232V11.7045C7.70642 11.7821 7.7393 11.8559 7.79606 11.9108C7.85282 11.9657 7.92914 11.9975 8.00938 11.9997ZM12.8033 11.9997H16.2147C16.2549 12 16.2947 11.9926 16.3319 11.9779C16.3691 11.9632 16.4029 11.9415 16.4313 11.914C16.4597 11.8865 16.4822 11.8538 16.4974 11.8178C16.5126 11.7819 16.5203 11.7433 16.5199 11.7045V8.75232C16.5203 8.71346 16.5126 8.67492 16.4974 8.63895C16.4822 8.60298 16.4597 8.5703 16.4313 8.54281C16.4029 8.51533 16.3691 8.4936 16.3319 8.47888C16.2947 8.46416 16.2549 8.45675 16.2147 8.45708H12.8032C12.763 8.45675 12.7232 8.46416 12.686 8.47888C12.6488 8.4936 12.615 8.51533 12.5866 8.54281C12.5582 8.5703 12.5357 8.60298 12.5205 8.63895C12.5053 8.67492 12.4976 8.71346 12.498 8.75232V11.7045C12.4961 11.7437 12.5028 11.7829 12.5174 11.8195C12.5321 11.8562 12.5545 11.8894 12.5833 11.9172C12.612 11.945 12.6464 11.9667 12.6842 11.9809C12.7221 11.9951 12.7626 12.0015 12.8032 11.9997H12.8033ZM12.7315 11.9997H20.9367C20.9769 12 21.0168 11.9926 21.054 11.9779C21.0911 11.9632 21.1249 11.9415 21.1533 11.914C21.1818 11.8865 21.2042 11.8538 21.2194 11.8178C21.2347 11.7819 21.2423 11.7433 21.242 11.7045V8.75232C21.2423 8.71346 21.2347 8.67492 21.2194 8.63895C21.2042 8.60298 21.1818 8.5703 21.1533 8.54281C21.1249 8.51533 21.0911 8.4936 21.054 8.47888C21.0168 8.46416 20.9769 8.45675 20.9367 8.45708H17.5254C17.4852 8.45675 17.4453 8.46416 17.4082 8.47888C17.371 8.4936 17.3372 8.51533 17.3088 8.54281C17.2803 8.5703 17.2579 8.60298 17.2427 8.63895C17.2274 8.67492 17.2198 8.71346 17.2201 8.75232V11.7045C17.2198 11.7433 17.2274 11.7819 17.2427 11.8178C17.2579 11.8538 17.2803 11.8865 17.3088 11.914C17.3372 11.9415 17.371 11.9632 17.4082 11.9779C17.4453 11.9926 17.4852 12 17.5254 11.9997H12.7315ZM3.21549 7.77991H11.4208C11.501 7.77763 11.5772 7.74579 11.634 7.69091C11.6907 7.63604 11.7236 7.56227 11.726 7.4847V4.53245C11.7263 4.49359 11.7187 4.45505 11.7035 4.41908C11.6883 4.38311 11.6658 4.35043 11.6374 4.32295C11.609 4.29547 11.5752 4.27374 11.538 4.25902C11.5008 4.2443 11.4609 4.2369 11.4208 4.23724H8.00938C7.9692 4.2369 7.92935 4.2443 7.89216 4.25902C7.85497 4.27374 7.82118 4.29547 7.79277 4.32295C7.76436 4.35043 7.74189 4.38311 7.72667 4.41908C7.71146 4.45505 7.7038 4.49359 7.70415 4.53245V7.48462C7.70951 7.56121 7.74338 7.63333 7.79951 7.68761C7.85563 7.74189 7.93019 7.77466 8.00938 7.77984M12.8033 7.77984H16.2147C16.2949 7.77755 16.3711 7.74572 16.4279 7.69084C16.4846 7.63596 16.5175 7.5622 16.5199 7.48462V4.53245C16.5203 4.49359 16.5126 4.45505 16.4974 4.41908C16.4822 4.38311 16.4597 4.35043 16.4313 4.32295C16.4029 4.29547 16.3691 4.27374 16.3319 4.25902C16.2947 4.2443 16.2549 4.2369 16.2147 4.23724H12.8032C12.763 4.2369 12.7232 4.2443 12.686 4.25902C12.6488 4.27374 12.615 4.29547 12.5866 4.32295C12.5582 4.35043 12.5357 4.38311 12.5205 4.41908C12.5053 4.45505 12.4976 4.49359 12.498 4.53245V7.48462C12.4976 7.52348 12.5053 7.56202 12.5205 7.59799C12.5357 7.63396 12.5582 7.66664 12.5866 7.69412C12.615 7.7216 12.6488 7.74333 12.686 7.75805C12.7232 7.77277 12.763 7.78017 12.8032 7.77984M17.5253 7.77984H20.9367C21.0169 7.77755 21.0932 7.74572 21.1499 7.69084C21.2067 7.63596 21.2396 7.5622 21.242 7.48462V4.53245C21.2396 4.45488 21.2067 4.38111 21.1499 4.32623C21.0932 4.27136 21.0169 4.23952 20.9367 4.23724H17.5254C17.4852 4.2369 17.4453 4.2443 17.4082 4.25902C17.371 4.27374 17.3372 4.29547 17.3088 4.32295C17.2803 4.35043 17.2579 4.38311 17.2427 4.41908C17.2274 4.45505 17.2198 4.49359 17.2201 4.53245V7.48462C17.2225 7.5622 17.2554 7.63596 17.3122 7.69084C17.3689 7.74572 17.4452 7.77755 17.5254 7.77984M17.5254 3.54262H20.9367C20.9769 3.54295 21.0168 3.53554 21.054 3.52082C21.0911 3.5061 21.1249 3.48437 21.1533 3.45689C21.1818 3.42941 21.2042 3.39673 21.2194 3.36076C21.2347 3.32478 21.2423 3.28624 21.242 3.24738V0.295228C21.2396 0.217655 21.2067 0.143887 21.1499 0.0890109C21.0932 0.0341348 21.0169 0.00229763 20.9367 1.10084e-05H17.5254C17.4852 -0.000326043 17.4453 0.00707987 17.4082 0.0217966C17.371 0.0365132 17.3372 0.0582458 17.3088 0.0857267C17.2803 0.113207 17.2579 0.145886 17.2427 0.181856C17.2274 0.217825 17.2198 0.256366 17.2201 0.295228V3.24738C17.2225 3.32496 17.2554 3.39873 17.3122 3.45361C17.3689 3.50849 17.4452 3.54033 17.5254 3.54262ZM22.2834 11.9997H25.6948C25.7349 12 25.7748 11.9926 25.812 11.9779C25.8492 11.9632 25.883 11.9415 25.9114 11.914C25.9398 11.8865 25.9622 11.8538 25.9775 11.8179C25.9927 11.7819 26.0003 11.7434 26 11.7045V8.75232C26.0003 8.71346 25.9927 8.67492 25.9775 8.63895C25.9622 8.60298 25.9398 8.5703 25.9114 8.54282C25.883 8.51534 25.8492 8.49361 25.812 8.47889C25.7748 8.46417 25.7349 8.45677 25.6948 8.4571H22.2834C22.2432 8.45677 22.2033 8.46417 22.1662 8.47889C22.129 8.49361 22.0952 8.51534 22.0668 8.54282C22.0384 8.5703 22.0159 8.60298 22.0007 8.63895C21.9855 8.67492 21.9778 8.71346 21.9781 8.75232V11.7045C21.9804 11.7821 22.0133 11.8559 22.0701 11.9108C22.1268 11.9657 22.2031 11.9975 22.2834 11.9997Z" fill="#D8D8FF"/>
</svg>
