<svg width="188" height="208" viewBox="0 0 188 208" fill="none" xmlns="http://www.w3.org/2000/svg">
<g opacity="0.3" clip-path="url(#clip0_4_185)">
<path opacity="0.18" d="M104.829 20.6784C94.4982 28.2911 82.8122 32.4023 71.3042 36.625C59.7963 40.8477 48.1548 45.2934 38.1021 53.4706C28.0493 61.6477 19.6243 74.1312 17.6655 88.9421C16.9448 94.4051 17.109 100.06 15.8569 105.373C13.4223 115.724 6.09633 123.117 2.50149 132.915C-2.49845 146.468 0.470349 163.024 7.31501 175.25C16.2882 191.256 31.1072 201.001 46.3769 205.115C61.6466 209.23 77.4783 208.251 93.0319 206.467C110.413 204.447 127.987 201.346 144.019 192.67C160.051 183.995 174.57 169.114 181.389 148.987C185.872 135.747 188.949 120.909 187.06 106.735C172.358 -3.59528 111.379 15.8564 104.829 20.6784Z" fill="#68E1FD"/>
<path d="M70.3026 51.345C70.0369 51.3285 69.7716 51.3866 69.5261 51.515C69.2806 51.6434 69.0611 51.8389 68.8836 52.0871C68.6655 52.4638 68.5276 52.9038 68.483 53.3658C68.302 54.7445 68.4157 56.1586 68.8126 57.4645C69.2094 58.7703 69.8752 59.9214 70.7423 60.8008C71.3182 61.3687 72.0388 61.8216 72.7623 61.6648C72.8451 61.6559 72.9234 61.6131 72.9849 61.5429C73.0471 61.4364 73.0758 61.3049 73.0655 61.1736C73.124 58.7347 73.1713 56.2401 72.4228 54.0033C71.8997 52.446 71.8608 51.3694 70.3026 51.345Z" fill="url(#paint0_linear_4_185)"/>
<path d="M115.372 51.345C115.638 51.3285 115.904 51.3866 116.15 51.515C116.395 51.6434 116.615 51.8388 116.793 52.0871C117.009 52.4651 117.146 52.9047 117.191 53.3658C117.373 54.7442 117.26 56.1582 116.863 57.4641C116.467 58.7701 115.802 59.9213 114.935 60.8008C114.359 61.3687 113.635 61.8216 112.912 61.6649C112.829 61.6552 112.751 61.6124 112.689 61.5429C112.628 61.4357 112.6 61.3048 112.609 61.1736C112.55 58.7347 112.506 56.2401 113.254 54.0033C113.775 52.446 113.814 51.3694 115.372 51.345Z" fill="url(#paint1_linear_4_185)"/>
<path d="M177.174 171.825H12.1117C7.08061 171.825 3.00214 176.932 3.00214 183.232V196.496C3.00214 202.795 7.08061 207.902 12.1117 207.902H177.174C182.205 207.902 186.283 202.795 186.283 196.496V183.232C186.283 176.932 182.205 171.825 177.174 171.825Z" fill="#68E1FD"/>
<path d="M177.174 171.825H12.1117C7.08061 171.825 3.00214 176.932 3.00214 183.232V196.496C3.00214 202.795 7.08061 207.902 12.1117 207.902H177.174C182.205 207.902 186.283 202.795 186.283 196.496V183.232C186.283 176.932 182.205 171.825 177.174 171.825Z" fill="url(#paint2_linear_4_185)"/>
<path d="M73.4577 74.8277C73.4577 74.8277 52.0333 73.2564 42.6678 87.576C33.3023 101.896 38.1854 169.393 38.1854 169.393L137.16 172.215L141.189 95.8507C141.587 79.7438 126.15 74.7546 109.871 74.8208H109.019C80.3635 75.1866 73.4577 74.8277 73.4577 74.8277Z" fill="#68E1FD"/>
<path d="M73.4577 74.8277C73.4577 74.8277 52.0333 73.2564 42.6678 87.576C33.3023 101.896 38.1854 169.393 38.1854 169.393L137.16 172.215L141.189 95.8507C141.587 79.7438 126.15 74.7546 109.871 74.8208H109.019C80.3635 75.1866 73.4577 74.8277 73.4577 74.8277Z" fill="url(#paint3_linear_4_185)"/>
<path d="M56.2624 78.0192C56.2624 78.0192 38.6332 78.0192 21.7887 132.988L43.3967 145.266L54.2925 128.27L56.2624 78.0192Z" fill="#68E1FD"/>
<path d="M128.354 78.0192C128.354 78.0192 145.983 78.0192 162.828 132.988L141.22 145.266L130.324 128.27L128.354 78.0192Z" fill="#68E1FD"/>
<path opacity="0.24" d="M32.2283 134.186C31.7534 133.913 31.3274 133.522 30.9756 133.038C30.6237 132.554 30.3533 131.986 30.1804 131.368C30.0075 130.751 29.9356 130.096 29.9691 129.443C30.0026 128.789 30.1407 128.151 30.3752 127.566C34.8048 116.518 48.3689 90.635 57.5758 89.109C69.1088 87.1893 82.2555 85.1789 82.2555 85.1789C82.2555 85.1789 122.205 84.2661 128.841 90.0567C134.036 94.586 145.813 113.916 152.23 124.643C153.713 127.127 153.159 131.685 150.911 133.005L135.051 149.105C134.531 149.409 134.071 149.851 133.702 150.401L123.059 166.33C122.672 166.91 122.183 167.369 121.63 167.671C121.077 167.973 120.476 168.111 119.873 168.072L63.9836 164.62C63.2139 164.574 62.4724 164.243 61.8528 163.669C61.2332 163.096 60.7634 162.305 60.5029 161.397L53.8808 138.381C53.6294 137.496 53.179 136.72 52.5839 136.147C51.9889 135.575 51.2744 135.23 50.5264 135.154C49.7785 135.077 49.0288 135.273 48.3677 135.718C47.7066 136.163 47.162 136.837 46.7996 137.66C46.321 138.74 45.533 139.552 44.5947 139.933C43.6564 140.314 42.6376 140.235 41.744 139.712L32.2283 134.186Z" fill="white"/>
<path d="M178.891 164.951H13.8286C8.79759 164.951 4.71912 170.058 4.71912 176.358V189.621C4.71912 195.921 8.79759 201.028 13.8286 201.028H178.891C183.922 201.028 188 195.921 188 189.621V176.358C188 170.058 183.922 164.951 178.891 164.951Z" fill="#68E1FD"/>
<path opacity="0.18" d="M18.4947 177.978C19.1875 178.521 20.0055 178.546 20.7873 178.563L35.2223 178.821C34.2497 179.483 33.3428 180.286 32.5206 181.214C29.3209 184.817 31.2435 191.458 35.5451 191.642C68.2242 193.036 100.931 192.552 133.619 192.067C138.721 191.991 143.844 191.914 148.922 191.262C149.653 191.172 150.352 190.841 150.948 190.303C151.545 189.765 152.017 189.04 152.318 188.2C152.619 187.361 152.737 186.436 152.661 185.521C152.585 184.606 152.317 183.732 151.885 182.988C151.782 182.658 151.741 182.303 151.765 181.95C151.79 181.597 151.878 181.256 152.025 180.953C152.171 180.65 152.371 180.393 152.609 180.202C152.847 180.011 153.117 179.891 153.398 179.852C158.735 179.075 164.25 179.322 169.536 178.19C170.58 177.967 171.798 177.556 172.221 176.1C172.5 175.197 172.341 174.149 172.113 173.225C171.042 168.929 168.256 165.985 165.31 164.668C162.363 163.351 159.23 163.421 156.156 163.498L35.3281 166.539C31.1545 166.644 24.435 164.797 20.5202 167.031C18.069 168.435 15.0111 175.25 18.4947 177.978Z" fill="#1D2741"/>
<path d="M44.2288 183.653L39.9022 168.63C39.9022 168.63 38.1326 166.073 42.8516 164.937C47.5705 163.801 138.877 164.937 138.877 164.937L141.003 183.639L44.2288 183.653Z" fill="url(#paint4_linear_4_185)"/>
<path d="M141.003 183.653V185.2C141.003 186.436 140.61 187.622 139.912 188.496C139.214 189.371 138.267 189.862 137.28 189.862H47.9654C46.978 189.862 46.0311 189.371 45.333 188.496C44.6348 187.622 44.2426 186.436 44.2426 185.2V183.653C44.2411 183.04 44.3364 182.433 44.5229 181.867C44.7094 181.3 44.9836 180.785 45.3295 180.352C45.6755 179.918 46.0864 179.574 46.5388 179.34C46.9911 179.106 47.476 178.987 47.9654 178.988H137.28C137.769 178.987 138.254 179.106 138.706 179.34C139.159 179.574 139.57 179.918 139.916 180.352C140.262 180.785 140.536 181.3 140.722 181.867C140.909 182.433 141.004 183.04 141.003 183.653Z" fill="url(#paint5_linear_4_185)"/>
<path d="M140.847 182.305C140.615 183.263 140.143 184.103 139.501 184.699C138.858 185.296 138.08 185.618 137.28 185.618H47.9656C47.1659 185.618 46.3874 185.296 45.7451 184.699C45.1029 184.103 44.6308 183.263 44.3986 182.305C44.6303 181.346 45.1021 180.506 45.7445 179.908C46.3868 179.311 47.1656 178.988 47.9656 178.988H137.28C138.08 178.988 138.859 179.311 139.501 179.908C140.144 180.506 140.615 181.346 140.847 182.305Z" fill="#68E1FD"/>
<path d="M44.2288 183.653L39.9022 168.63C39.9022 168.63 38.1326 166.073 42.8516 164.937C47.5705 163.801 138.877 164.937 138.877 164.937L141.003 183.639L44.2288 183.653Z" fill="url(#paint6_linear_4_185)"/>
<path d="M140.847 182.305C140.615 183.263 140.143 184.103 139.501 184.699C138.858 185.296 138.08 185.618 137.28 185.618H47.9656C47.1659 185.618 46.3874 185.296 45.7451 184.699C45.1029 184.103 44.6308 183.263 44.3986 182.305C44.6303 181.346 45.1021 180.506 45.7445 179.908C46.3868 179.311 47.1656 178.988 47.9656 178.988L138.891 177.1C140.561 177.1 140.382 180.385 140.847 182.305Z" fill="url(#paint7_linear_4_185)"/>
<path d="M138.877 107.735V172.215C138.877 174.011 138.307 175.734 137.293 177.004C136.279 178.274 134.903 178.988 133.468 178.988H51.7636C51.053 178.989 50.3494 178.814 49.6928 178.474C49.0362 178.134 48.4396 177.635 47.9372 177.006C47.4348 176.377 47.0364 175.63 46.7649 174.808C46.4933 173.986 46.3539 173.105 46.3546 172.215V107.735C46.3546 105.939 46.9245 104.216 47.9389 102.946C48.9532 101.675 50.329 100.962 51.7636 100.962H133.468C134.179 100.961 134.882 101.136 135.539 101.476C136.196 101.816 136.792 102.315 137.295 102.944C137.797 103.573 138.195 104.32 138.467 105.142C138.739 105.964 138.878 106.845 138.877 107.735Z" fill="#68E1FD"/>
<path d="M138.877 107.735V172.215C138.877 174.011 138.307 175.734 137.293 177.004C136.279 178.274 134.903 178.988 133.468 178.988H51.7636C51.053 178.989 50.3494 178.814 49.6928 178.474C49.0362 178.134 48.4396 177.635 47.9372 177.006C47.4348 176.377 47.0364 175.63 46.7649 174.808C46.4933 173.986 46.3539 173.105 46.3546 172.215V107.735C46.3546 105.939 46.9245 104.216 47.9389 102.946C48.9532 101.675 50.329 100.962 51.7636 100.962H133.468C134.179 100.961 134.882 101.136 135.539 101.476C136.196 101.816 136.792 102.315 137.295 102.944C137.797 103.573 138.195 104.32 138.467 105.142C138.739 105.964 138.878 106.845 138.877 107.735Z" fill="url(#paint8_linear_4_185)"/>
<path d="M138.877 107.735V172.218C138.878 173.316 138.665 174.397 138.257 175.369C137.848 176.34 137.257 177.172 136.534 177.793C136.521 177.808 136.506 177.821 136.49 177.831C135.681 178.52 134.737 178.916 133.76 178.978C133.663 178.978 133.568 178.978 133.465 178.978H51.7606C50.9668 178.977 50.1829 178.757 49.4651 178.333C49.125 177.434 48.9491 176.45 48.9504 175.455V110.986C48.9504 109.189 49.5203 107.467 50.5346 106.196C51.549 104.926 52.9248 104.213 54.3593 104.213H136.064C136.859 104.211 137.643 104.43 138.362 104.854C138.703 105.754 138.879 106.739 138.877 107.735Z" fill="#68E1FD"/>
<path d="M25.9846 135.371C25.9846 135.371 16.583 155.272 17.7933 162.85C19.0036 170.428 46.3545 167.7 46.3545 167.7V149.509H40.5532L43.3968 145.266L25.9846 135.371Z" fill="url(#paint9_linear_4_185)"/>
<path d="M158.632 135.371C158.632 135.371 166.701 157.697 166.938 162.243C167.174 166.79 165.329 168.654 157.903 169.846C150.477 171.037 138.877 169.846 138.877 169.846V147.377L142.915 147.074L141.22 145.255L158.632 135.371Z" fill="url(#paint10_linear_4_185)"/>
<path d="M82.2444 81.4719C82.2444 81.4719 81.9829 89.1682 87.1748 94.0146C92.3667 98.861 98.3043 94.1714 99.7484 90.9869C101.192 87.8025 103.338 80.0608 103.338 80.0608L82.2444 81.4719Z" fill="url(#paint11_linear_4_185)"/>
<path d="M71.1818 49.8225C71.1818 49.8225 73.0293 79.3745 87.1777 84.6877C101.326 90.0009 113.196 71.3262 114.398 49.8225C115.6 28.3187 104.381 8.81823 89.3007 12.8005C74.2202 16.7829 69.1256 36.8373 71.1818 49.8225Z" fill="url(#paint12_linear_4_185)"/>
<path d="M120.761 34.9942C121.092 36.5341 120.761 38.1647 120.36 39.6768C118.938 45.0709 116.686 50.0645 113.733 54.3762C113.811 53.7839 113.877 53.1846 113.93 52.5888C114.367 47.8528 114.103 43.0567 113.154 38.4399C111.023 37.2797 108.769 40.5304 106.476 40.0252C104.434 39.5897 103.496 36.5411 101.69 35.2555C99.8847 33.9698 97.5169 34.806 95.7334 36.1648C93.9499 37.5236 92.3584 39.3806 90.3996 40.3179C85.9144 42.4536 81.0452 39.2239 76.944 36.1021L76.151 39.6106C76.0703 39.6106 75.9896 39.6106 75.9117 39.6106L75.4248 39.635C74.5541 39.6799 73.7155 40.059 73.0227 40.7209C72.3299 41.3828 71.8164 42.2954 71.5517 43.3351C70.653 46.8192 71.1733 49.7946 71.6213 54.0382C71.6547 54.3518 71.8355 55.7802 71.919 56.0868C69.1366 50.3799 66.2791 42.4989 67.4672 35.9976C67.6961 34.9652 67.8818 33.9185 68.0237 32.8619C68.1656 31.3812 67.968 29.8865 67.8985 28.3988C67.7287 24.8032 68.416 20.9463 70.4777 18.4308C75.3719 12.473 79.3814 4.33769 85.8504 1.60616C89.0995 0.259781 92.5327 -0.249104 95.9431 0.110161C99.3535 0.469427 102.671 1.68941 105.694 3.69661C108.755 5.75222 111.423 8.57434 114.075 11.3616C116.095 13.5043 118.134 15.6784 119.539 18.4657C120.945 21.2529 121.651 24.7753 120.755 27.8727C120.394 29.127 119.773 30.3394 119.846 31.6669C119.91 32.8271 120.513 33.8514 120.761 34.9942Z" fill="#3F3D56"/>
<path opacity="0.24" d="M116.749 45.7565C115.939 48.1013 115.093 50.5088 113.93 52.5888C114.367 47.8528 114.103 43.0567 113.154 38.4399C111.023 37.2797 108.769 40.5304 106.476 40.0252C104.434 39.5897 103.496 36.5411 101.691 35.2555C99.8848 33.9699 97.5169 34.806 95.7334 36.1648C93.9499 37.5236 92.3584 39.3806 90.3996 40.3179C85.9478 42.4397 81.1092 39.2726 77.0275 36.1648C76.8244 33.9037 80.8143 31.8271 87.4558 35.0604C92.9038 37.7152 97.7507 25.3607 104.762 28.7298C105.561 29.1165 105.987 30.2837 106.785 30.6774C107.898 31.2209 109.119 30.7889 110.294 30.5798C111.468 30.3708 112.876 30.5415 113.502 31.8062C113.98 32.7748 113.811 34.0256 114.028 35.1335C114.245 36.2415 115.352 37.2693 116 36.4714C116.231 38.2162 116.307 39.9877 116.226 41.7533C116.631 41.1019 117.163 40.591 117.77 40.2691C117.967 42.1575 117.353 44.011 116.749 45.7565Z" fill="white"/>
<path opacity="0.24" d="M72.6925 39.7813C71.0398 44.1155 70.9341 51.4635 71.9246 56.0973C71.1873 53.8396 69.7154 49.4775 69.2813 47.084C68.9085 45.0527 68.6942 42.7289 69.6764 41.0426C69.9408 40.6748 70.1678 40.2675 70.3525 39.8301C70.4448 39.4681 70.5036 39.094 70.5278 38.7152C70.6809 37.4853 71.3904 36.1648 72.3837 36.2276C72.7858 36.2905 73.1687 36.4799 73.4966 36.778C74.0949 37.2554 75.8116 38.4957 75.9201 39.6211L72.6925 39.7813Z" fill="white"/>
<path d="M138.777 172.218C138.777 172.218 138.499 175.849 136.434 177.793C136.421 177.808 136.406 177.821 136.39 177.831C135.594 178.553 134.642 178.952 133.66 178.978C133.563 178.978 133.468 178.978 133.365 178.978H51.6607C50.866 178.977 50.0813 178.757 49.3624 178.333C49.0245 177.433 48.8496 176.45 48.8505 175.455V141.6L138.777 172.218Z" fill="url(#paint13_linear_4_185)"/>
<path opacity="0.24" d="M57.2699 178.037H49.4792L48.9645 168.717V110.986C48.9645 109.189 49.5343 107.467 50.5487 106.196C51.5631 104.926 52.9389 104.213 54.3734 104.213H74.2202C74.2202 104.213 53.3746 104.303 52.4146 110.097C51.4547 115.891 52.4146 174.065 52.4146 174.065C52.4146 174.065 51.4491 177.131 57.2699 178.037Z" fill="white"/>
</g>
<defs>
<linearGradient id="paint0_linear_4_185" x1="72.0806" y1="56.369" x2="68.5686" y2="56.8335" gradientUnits="userSpaceOnUse">
<stop stop-color="#ECC4D7"/>
<stop offset="0.16" stop-color="#EDCBD5"/>
<stop offset="0.42" stop-color="#EFD4D1"/>
<stop offset="0.7" stop-color="#F2EAC9"/>
</linearGradient>
<linearGradient id="paint1_linear_4_185" x1="113.594" y1="56.369" x2="117.108" y2="56.8335" gradientUnits="userSpaceOnUse">
<stop stop-color="#ECC4D7"/>
<stop offset="0.16" stop-color="#EDCBD5"/>
<stop offset="0.42" stop-color="#EFD4D1"/>
<stop offset="0.7" stop-color="#F2EAC9"/>
</linearGradient>
<linearGradient id="paint2_linear_4_185" x1="94.6148" y1="186.217" x2="95.4874" y2="259.073" gradientUnits="userSpaceOnUse">
<stop offset="0.01" stop-opacity="0"/>
<stop offset="0.26" stop-color="#0D0D12" stop-opacity="0.21"/>
<stop offset="0.77" stop-color="#2F2E40" stop-opacity="0.75"/>
<stop offset="0.99" stop-color="#3F3D56"/>
</linearGradient>
<linearGradient id="paint3_linear_4_185" x1="89.1197" y1="108.972" x2="95.8304" y2="-8.0729" gradientUnits="userSpaceOnUse">
<stop offset="0.01" stop-opacity="0"/>
<stop offset="0.26" stop-color="#0D0D12" stop-opacity="0.21"/>
<stop offset="0.77" stop-color="#2F2E40" stop-opacity="0.75"/>
<stop offset="0.99" stop-color="#3F3D56"/>
</linearGradient>
<linearGradient id="paint4_linear_4_185" x1="39.5767" y1="174.048" x2="141.003" y2="174.048" gradientUnits="userSpaceOnUse">
<stop offset="0.01" stop-opacity="0"/>
<stop offset="0.26" stop-color="#0D0D12" stop-opacity="0.21"/>
<stop offset="0.77" stop-color="#2F2E40" stop-opacity="0.75"/>
<stop offset="0.99" stop-color="#3F3D56"/>
</linearGradient>
<linearGradient id="paint5_linear_4_185" x1="91.8185" y1="202.614" x2="93.4474" y2="178.903" gradientUnits="userSpaceOnUse">
<stop stop-color="#68E1FD"/>
<stop offset="1" stop-color="#69B9EB"/>
</linearGradient>
<linearGradient id="paint6_linear_4_185" x1="90.2606" y1="184.197" x2="90.5093" y2="137.81" gradientUnits="userSpaceOnUse">
<stop offset="0.01" stop-opacity="0"/>
<stop offset="0.26" stop-color="#0D0D12" stop-opacity="0.21"/>
<stop offset="0.77" stop-color="#2F2E40" stop-opacity="0.75"/>
<stop offset="0.99" stop-color="#3F3D56"/>
</linearGradient>
<linearGradient id="paint7_linear_4_185" x1="122.876" y1="168.598" x2="-0.085815" y2="204.114" gradientUnits="userSpaceOnUse">
<stop offset="0.01" stop-opacity="0"/>
<stop offset="0.26" stop-color="#0D0D12" stop-opacity="0.21"/>
<stop offset="0.77" stop-color="#2F2E40" stop-opacity="0.75"/>
<stop offset="0.99" stop-color="#3F3D56"/>
</linearGradient>
<linearGradient id="paint8_linear_4_185" x1="90.9757" y1="83.7679" x2="95.8757" y2="190.875" gradientUnits="userSpaceOnUse">
<stop offset="0.01" stop-opacity="0"/>
<stop offset="0.26" stop-color="#0D0D12" stop-opacity="0.21"/>
<stop offset="0.77" stop-color="#2F2E40" stop-opacity="0.75"/>
<stop offset="0.99" stop-color="#3F3D56"/>
</linearGradient>
<linearGradient id="paint9_linear_4_185" x1="29.6296" y1="214.365" x2="40.2401" y2="72.7665" gradientUnits="userSpaceOnUse">
<stop stop-color="#ECC4D7"/>
<stop offset="0.16" stop-color="#EDCBD5"/>
<stop offset="0.42" stop-color="#EFD4D1"/>
<stop offset="0.7" stop-color="#F2EAC9"/>
</linearGradient>
<linearGradient id="paint10_linear_4_185" x1="148.457" y1="248.659" x2="160.274" y2="90.9686" gradientUnits="userSpaceOnUse">
<stop stop-color="#ECC4D7"/>
<stop offset="0.16" stop-color="#EDCBD5"/>
<stop offset="0.42" stop-color="#EFD4D1"/>
<stop offset="0.7" stop-color="#F2EAC9"/>
</linearGradient>
<linearGradient id="paint11_linear_4_185" x1="91.3428" y1="111.069" x2="96.8941" y2="36.9595" gradientUnits="userSpaceOnUse">
<stop stop-color="#ECC4D7"/>
<stop offset="0.16" stop-color="#EDCBD5"/>
<stop offset="0.42" stop-color="#EFD4D1"/>
<stop offset="0.7" stop-color="#F2EAC9"/>
</linearGradient>
<linearGradient id="paint12_linear_4_185" x1="92.9679" y1="1.89187" x2="91.4497" y2="121.337" gradientUnits="userSpaceOnUse">
<stop stop-color="#ECC4D7"/>
<stop offset="0.16" stop-color="#EDCBD5"/>
<stop offset="0.42" stop-color="#EFD4D1"/>
<stop offset="0.7" stop-color="#F2EAC9"/>
</linearGradient>
<linearGradient id="paint13_linear_4_185" x1="97.9317" y1="119.438" x2="55.7482" y2="364.319" gradientUnits="userSpaceOnUse">
<stop offset="0.01" stop-opacity="0"/>
<stop offset="0.26" stop-color="#0D0D12" stop-opacity="0.21"/>
<stop offset="0.77" stop-color="#2F2E40" stop-opacity="0.75"/>
<stop offset="0.99" stop-color="#3F3D56"/>
</linearGradient>
<clipPath id="clip0_4_185">
<rect width="188" height="208" fill="white"/>
</clipPath>
</defs>
</svg>
