<svg width="370" height="242" viewBox="0 0 370 242" fill="none" xmlns="http://www.w3.org/2000/svg">
<g opacity="0.3" clip-path="url(#clip0_464_5567)">
<path opacity="0.18" d="M286.828 20.6773C276.497 28.2901 264.811 32.4013 253.303 36.624C241.795 40.8467 230.154 45.2924 220.101 53.4696C210.048 61.6467 201.623 74.1302 199.664 88.9411C198.944 94.4041 199.108 100.059 197.856 105.372C195.421 115.723 188.095 123.116 184.501 132.914C179.501 146.467 182.469 163.023 189.314 175.249C198.287 191.255 213.106 201 228.376 205.114C243.646 209.229 259.477 208.25 275.031 206.466C292.412 204.446 309.986 201.345 326.018 192.669C342.05 183.994 356.569 169.113 363.388 148.986C367.871 135.746 370.948 120.908 369.059 106.734C354.357 -3.59629 293.378 15.8554 286.828 20.6773Z" fill="#68E1FD"/>
<path d="M252.302 51.3445C252.036 51.3281 251.771 51.3862 251.525 51.5146C251.28 51.643 251.06 51.8384 250.883 52.0866C250.665 52.4633 250.527 52.9034 250.482 53.3653C250.301 54.744 250.415 56.1581 250.812 57.464C251.209 58.7699 251.874 59.921 252.741 60.8003C253.317 61.3682 254.038 61.8212 254.761 61.6644C254.844 61.6555 254.923 61.6126 254.984 61.5424C255.046 61.436 255.075 61.3045 255.065 61.1731C255.123 58.7343 255.17 56.2397 254.422 54.0029C253.899 52.4455 253.86 51.3689 252.302 51.3445Z" fill="url(#paint0_linear_464_5567)"/>
<path d="M297.371 51.3445C297.637 51.3281 297.903 51.3861 298.149 51.5145C298.395 51.6429 298.615 51.8383 298.793 52.0866C299.009 52.4647 299.145 52.9042 299.191 53.3653C299.372 54.7437 299.259 56.1578 298.863 57.4637C298.466 58.7696 297.801 59.9208 296.934 60.8003C296.358 61.3682 295.635 61.8212 294.911 61.6644C294.829 61.6547 294.751 61.612 294.689 61.5425C294.628 61.4353 294.599 61.3043 294.608 61.1731C294.55 58.7343 294.505 56.2397 295.254 54.0029C295.774 52.4455 295.813 51.3689 297.371 51.3445Z" fill="url(#paint1_linear_464_5567)"/>
<path d="M359.173 171.824H194.11C189.079 171.824 185.001 176.931 185.001 183.231V196.495C185.001 202.795 189.079 207.902 194.11 207.902H359.173C364.204 207.902 368.282 202.795 368.282 196.495V183.231C368.282 176.931 364.204 171.824 359.173 171.824Z" fill="#68E1FD"/>
<path d="M359.173 171.824H194.11C189.079 171.824 185.001 176.931 185.001 183.231V196.495C185.001 202.795 189.079 207.902 194.11 207.902H359.173C364.204 207.902 368.282 202.795 368.282 196.495V183.231C368.282 176.931 364.204 171.824 359.173 171.824Z" fill="url(#paint2_linear_464_5567)"/>
<path d="M255.457 74.8282C255.457 74.8282 234.032 73.2569 224.667 87.5765C215.301 101.896 220.185 169.393 220.185 169.393L319.159 172.215L323.188 95.8512C323.586 79.7443 308.15 74.7551 291.87 74.8213H291.018C262.363 75.1871 255.457 74.8282 255.457 74.8282Z" fill="#68E1FD"/>
<path d="M255.457 74.8282C255.457 74.8282 234.032 73.2569 224.667 87.5765C215.301 101.896 220.185 169.393 220.185 169.393L319.159 172.215L323.188 95.8512C323.586 79.7443 308.15 74.7551 291.87 74.8213H291.018C262.363 75.1871 255.457 74.8282 255.457 74.8282Z" fill="url(#paint3_linear_464_5567)"/>
<path d="M238.262 78.0195C238.262 78.0195 220.633 78.0195 203.788 132.988L225.396 145.266L236.292 128.271L238.262 78.0195Z" fill="#68E1FD"/>
<path d="M310.354 78.0195C310.354 78.0195 327.983 78.0195 344.827 132.988L323.219 145.266L312.323 128.271L310.354 78.0195Z" fill="#68E1FD"/>
<path opacity="0.24" d="M214.227 134.187C213.752 133.913 213.326 133.523 212.974 133.038C212.623 132.554 212.352 131.987 212.179 131.369C212.006 130.751 211.934 130.096 211.968 129.443C212.001 128.79 212.14 128.152 212.374 127.567C216.804 116.519 230.368 90.6355 239.575 89.1095C251.108 87.1897 264.254 85.1794 264.254 85.1794C264.254 85.1794 304.204 84.2666 310.84 90.0571C316.035 94.5864 327.812 113.916 334.229 124.644C335.712 127.128 335.158 131.685 332.91 133.005L317.05 149.105C316.53 149.409 316.07 149.851 315.701 150.402L305.058 166.331C304.671 166.91 304.182 167.369 303.629 167.671C303.076 167.974 302.475 168.111 301.872 168.073L245.982 164.62C245.213 164.574 244.471 164.244 243.852 163.67C243.232 163.096 242.762 162.305 242.502 161.397L235.88 138.381C235.628 137.496 235.178 136.72 234.583 136.148C233.988 135.575 233.273 135.23 232.525 135.154C231.777 135.078 231.028 135.274 230.367 135.719C229.705 136.163 229.161 136.837 228.798 137.66V137.66C228.32 138.74 227.532 139.553 226.594 139.934C225.655 140.314 224.636 140.235 223.743 139.712L214.227 134.187Z" fill="white"/>
<path d="M360.889 164.951H195.827C190.796 164.951 186.718 170.058 186.718 176.358V189.622C186.718 195.922 190.796 201.029 195.827 201.029H360.889C365.92 201.029 369.999 195.922 369.999 189.622V176.358C369.999 170.058 365.92 164.951 360.889 164.951Z" fill="#68E1FD"/>
<path opacity="0.18" d="M200.494 177.978C201.187 178.521 202.005 178.546 202.787 178.563L217.222 178.821C216.249 179.483 215.342 180.286 214.52 181.214C211.32 184.817 213.243 191.458 217.544 191.642C250.223 193.036 282.93 192.552 315.618 192.067C320.721 191.991 325.843 191.914 330.921 191.263C331.652 191.172 332.351 190.841 332.948 190.303C333.544 189.765 334.016 189.04 334.317 188.2C334.618 187.361 334.736 186.436 334.66 185.521C334.584 184.606 334.316 183.732 333.884 182.988V182.988C333.781 182.658 333.74 182.303 333.765 181.95C333.789 181.597 333.877 181.256 334.024 180.953C334.17 180.65 334.37 180.393 334.608 180.202C334.846 180.011 335.117 179.892 335.398 179.852C340.734 179.075 346.249 179.323 351.535 178.19C352.579 177.967 353.798 177.556 354.22 176.1C354.499 175.197 354.34 174.149 354.112 173.225C353.041 168.93 350.256 165.986 347.309 164.669C344.362 163.352 341.23 163.421 338.155 163.498L217.327 166.539C213.154 166.644 206.434 164.797 202.519 167.031C200.068 168.435 197.01 175.25 200.494 177.978Z" fill="#1D2741"/>
<path d="M226.228 183.653L221.901 168.63C221.901 168.63 220.132 166.072 224.851 164.936C229.569 163.801 320.876 164.936 320.876 164.936L323.002 183.639L226.228 183.653Z" fill="url(#paint4_linear_464_5567)"/>
<path d="M323.002 183.653V185.2C323.002 186.437 322.61 187.623 321.912 188.497C321.214 189.371 320.267 189.862 319.28 189.862H229.965C228.978 189.862 228.031 189.371 227.333 188.497C226.634 187.623 226.242 186.437 226.242 185.2V183.653C226.241 183.041 226.336 182.433 226.523 181.867C226.709 181.3 226.983 180.785 227.329 180.352C227.675 179.918 228.086 179.575 228.538 179.341C228.991 179.107 229.476 178.987 229.965 178.988H319.28C319.769 178.987 320.254 179.107 320.706 179.341C321.158 179.575 321.569 179.918 321.915 180.352C322.261 180.785 322.535 181.3 322.722 181.867C322.909 182.433 323.004 183.041 323.002 183.653Z" fill="url(#paint5_linear_464_5567)"/>
<path d="M322.846 182.305C322.614 183.263 322.142 184.103 321.499 184.699C320.857 185.296 320.079 185.618 319.279 185.619H229.964C229.165 185.618 228.386 185.296 227.744 184.699C227.102 184.103 226.63 183.263 226.397 182.305C226.629 181.346 227.101 180.506 227.743 179.909C228.386 179.311 229.164 178.989 229.964 178.988H319.279C320.079 178.989 320.858 179.311 321.5 179.909C322.142 180.506 322.614 181.346 322.846 182.305V182.305Z" fill="#68E1FD"/>
<path d="M226.228 183.653L221.901 168.63C221.901 168.63 220.132 166.072 224.851 164.936C229.569 163.801 320.876 164.936 320.876 164.936L323.002 183.639L226.228 183.653Z" fill="url(#paint6_linear_464_5567)"/>
<path d="M322.846 182.305C322.614 183.263 322.142 184.103 321.499 184.699C320.857 185.296 320.079 185.618 319.279 185.618H229.964C229.165 185.618 228.386 185.296 227.744 184.699C227.102 184.103 226.63 183.263 226.397 182.305C226.629 181.346 227.101 180.506 227.743 179.908C228.386 179.311 229.164 178.988 229.964 178.988L320.89 177.1C322.559 177.1 322.381 180.385 322.846 182.305Z" fill="url(#paint7_linear_464_5567)"/>
<path d="M320.876 107.734V172.214C320.876 174.01 320.306 175.733 319.292 177.003C318.277 178.273 316.902 178.987 315.467 178.987H233.762C233.052 178.988 232.348 178.813 231.692 178.473C231.035 178.133 230.439 177.634 229.936 177.005C229.434 176.376 229.035 175.629 228.764 174.807C228.492 173.985 228.353 173.104 228.354 172.214V107.734C228.354 105.938 228.923 104.215 229.938 102.945C230.952 101.675 232.328 100.961 233.762 100.961H315.467C316.178 100.96 316.881 101.135 317.538 101.475C318.194 101.815 318.791 102.314 319.293 102.943C319.796 103.572 320.194 104.319 320.466 105.141C320.737 105.963 320.877 106.844 320.876 107.734Z" fill="#68E1FD"/>
<path d="M320.876 107.734V172.214C320.876 174.01 320.306 175.733 319.292 177.003C318.277 178.273 316.902 178.987 315.467 178.987H233.762C233.052 178.988 232.348 178.813 231.692 178.473C231.035 178.133 230.439 177.634 229.936 177.005C229.434 176.376 229.035 175.629 228.764 174.807C228.492 173.985 228.353 173.104 228.354 172.214V107.734C228.354 105.938 228.923 104.215 229.938 102.945C230.952 101.675 232.328 100.961 233.762 100.961H315.467C316.178 100.96 316.881 101.135 317.538 101.475C318.194 101.815 318.791 102.314 319.293 102.943C319.796 103.572 320.194 104.319 320.466 105.141C320.737 105.963 320.877 106.844 320.876 107.734Z" fill="url(#paint8_linear_464_5567)"/>
<path d="M320.876 107.735V172.219C320.877 173.316 320.664 174.398 320.255 175.369C319.847 176.34 319.256 177.173 318.533 177.793C318.519 177.808 318.504 177.821 318.489 177.832C317.68 178.52 316.736 178.917 315.759 178.978C315.662 178.978 315.567 178.978 315.464 178.978H233.759C232.966 178.978 232.182 178.758 231.464 178.333C231.124 177.434 230.948 176.451 230.949 175.456V110.986C230.949 109.19 231.519 107.467 232.533 106.197C233.548 104.926 234.924 104.213 236.358 104.213H318.063C318.857 104.211 319.642 104.43 320.361 104.854C320.702 105.755 320.877 106.739 320.876 107.735V107.735Z" fill="#68E1FD"/>
<path d="M207.983 135.371C207.983 135.371 198.582 155.272 199.792 162.85C201.002 170.428 228.353 167.7 228.353 167.7V149.51H222.552L225.396 145.266L207.983 135.371Z" fill="url(#paint9_linear_464_5567)"/>
<path d="M340.632 135.371C340.632 135.371 348.701 157.697 348.937 162.244C349.174 166.791 347.329 168.655 339.903 169.846C332.477 171.038 320.877 169.846 320.877 169.846V147.377L324.914 147.074L323.22 145.255L340.632 135.371Z" fill="url(#paint10_linear_464_5567)"/>
<path d="M264.243 81.4716C264.243 81.4716 263.982 89.168 269.174 94.0143C274.366 98.8607 280.303 94.1711 281.747 90.9866C283.191 87.8022 285.337 80.0605 285.337 80.0605L264.243 81.4716Z" fill="url(#paint11_linear_464_5567)"/>
<path d="M253.18 49.8216C253.18 49.8216 255.028 79.3737 269.176 84.6869C283.325 90.0001 295.194 71.3254 296.396 49.8216C297.598 28.3178 286.38 8.81741 271.299 12.7997C256.219 16.782 251.124 36.8364 253.18 49.8216Z" fill="url(#paint12_linear_464_5567)"/>
<path d="M302.76 34.9938C303.091 36.5338 302.76 38.1644 302.359 39.6764C300.937 45.0706 298.685 50.0642 295.731 54.3758C295.809 53.7835 295.876 53.1843 295.929 52.5885C296.365 47.8525 296.102 43.0564 295.153 38.4396C293.021 37.2794 290.768 40.53 288.475 40.0249C286.433 39.5893 285.495 36.5408 283.689 35.2551C281.883 33.9695 279.516 34.8057 277.732 36.1645C275.949 37.5233 274.357 39.3803 272.398 40.3175C267.913 42.4533 263.044 39.2235 258.943 36.1018L258.15 39.6102C258.069 39.6102 257.988 39.6102 257.91 39.6102L257.424 39.6346C256.553 39.6796 255.714 40.0587 255.021 40.7206C254.329 41.3824 253.815 42.2951 253.55 43.3347C252.652 46.8188 253.172 49.7942 253.62 54.0379C253.653 54.3514 253.834 55.7799 253.918 56.0865C251.135 50.3796 248.278 42.4986 249.466 35.9973C249.695 34.9648 249.881 33.9182 250.022 32.8616C250.164 31.3808 249.967 29.8862 249.897 28.3985C249.727 24.8029 250.415 20.946 252.476 18.4305C257.371 12.4727 261.38 4.33735 267.849 1.60583C271.098 0.259445 274.531 -0.24944 277.942 0.109826C281.352 0.469091 284.669 1.68907 287.693 3.69628C290.754 5.75189 293.422 8.574 296.074 11.3613C298.094 13.504 300.133 15.6781 301.538 18.4653C302.943 21.2526 303.65 24.775 302.754 27.8724C302.392 29.1266 301.772 30.3391 301.844 31.6665C301.908 32.8267 302.512 33.8511 302.76 34.9938Z" fill="#3F3D56"/>
<path opacity="0.24" d="M298.748 45.7561C297.939 48.1009 297.093 50.5084 295.93 52.5884C296.366 47.8524 296.103 43.0563 295.153 38.4395C293.022 37.2793 290.768 40.53 288.476 40.0248C286.433 39.5893 285.496 36.5407 283.69 35.2551C281.884 33.9695 279.516 34.8056 277.733 36.1644C275.949 37.5232 274.358 39.3802 272.399 40.3175C267.947 42.4393 263.109 39.2722 259.027 36.1644C258.824 33.9033 262.814 31.8267 269.455 35.06C274.903 37.7149 279.75 25.3603 286.762 28.7294C287.56 29.1161 287.986 30.2833 288.785 30.677C289.897 31.2205 291.119 30.7885 292.293 30.5794C293.467 30.3704 294.875 30.5411 295.501 31.8058C295.98 32.7744 295.81 34.0252 296.027 35.1331C296.244 36.2411 297.351 37.2689 298 36.471C298.23 38.2158 298.306 39.9873 298.225 41.7529C298.63 41.1015 299.162 40.5906 299.769 40.2687C299.967 42.1571 299.352 44.0106 298.748 45.7561Z" fill="white"/>
<path opacity="0.24" d="M254.692 39.7805C253.039 44.1147 252.933 51.4627 253.924 56.0965C253.187 53.8388 251.715 49.4767 251.281 47.0832C250.908 45.052 250.694 42.7281 251.676 41.0418C251.94 40.674 252.167 40.2667 252.352 39.8293C252.444 39.4673 252.503 39.0932 252.527 38.7144C252.68 37.4845 253.39 36.164 254.383 36.2268C254.785 36.2897 255.168 36.4791 255.496 36.7772C256.094 37.2546 257.811 38.4949 257.919 39.6203L254.692 39.7805Z" fill="white"/>
<path d="M320.776 172.218C320.776 172.218 320.498 175.848 318.433 177.792C318.42 177.807 318.405 177.82 318.389 177.831C317.594 178.552 316.641 178.952 315.659 178.977C315.562 178.977 315.467 178.977 315.364 178.977H233.66C232.865 178.976 232.08 178.756 231.362 178.332C231.024 177.432 230.849 176.449 230.85 175.454V141.6L320.776 172.218Z" fill="url(#paint13_linear_464_5567)"/>
<path opacity="0.24" d="M239.269 178.037H231.479L230.964 168.717V110.986C230.964 109.19 231.534 107.467 232.548 106.197C233.562 104.926 234.938 104.213 236.373 104.213H256.22C256.22 104.213 235.374 104.303 234.414 110.098C233.454 115.892 234.414 174.065 234.414 174.065C234.414 174.065 233.449 177.131 239.269 178.037Z" fill="white"/>
</g>
<circle opacity="0.5" cx="93.0745" cy="148.44" r="63.5066" transform="rotate(49.3791 93.0745 148.44)" stroke="url(#paint14_linear_464_5567)" stroke-opacity="0.5" stroke-width="5"/>
<circle opacity="0.5" cx="91.6466" cy="151.321" r="44.7063" transform="rotate(49.3791 91.6466 151.321)" stroke="url(#paint15_linear_464_5567)" stroke-opacity="0.5" stroke-width="5"/>
<path d="M64.739 179V172H67.039C67.5857 172 68.0357 172.09 68.389 172.27C68.7424 172.45 69.0024 172.693 69.169 173C69.3424 173.307 69.429 173.653 69.429 174.04C69.429 174.42 69.3457 174.763 69.179 175.07C69.0124 175.377 68.7524 175.623 68.399 175.81C68.0457 175.99 67.5924 176.08 67.039 176.08H65.579V179H64.739ZM65.579 175.37H67.019C67.579 175.37 67.9757 175.253 68.209 175.02C68.449 174.78 68.569 174.453 68.569 174.04C68.569 173.62 68.449 173.293 68.209 173.06C67.9757 172.82 67.579 172.7 67.019 172.7H65.579V175.37ZM71.8957 179.12C71.4823 179.12 71.139 179.05 70.8657 178.91C70.5923 178.77 70.389 178.583 70.2557 178.35C70.1223 178.117 70.0557 177.863 70.0557 177.59C70.0557 177.083 70.249 176.693 70.6357 176.42C71.0223 176.147 71.549 176.01 72.2157 176.01H73.5557V175.95C73.5557 175.517 73.4423 175.19 73.2157 174.97C72.989 174.743 72.6857 174.63 72.3057 174.63C71.979 174.63 71.6957 174.713 71.4557 174.88C71.2223 175.04 71.0757 175.277 71.0157 175.59H70.1557C70.189 175.23 70.309 174.927 70.5157 174.68C70.729 174.433 70.9923 174.247 71.3057 174.12C71.619 173.987 71.9523 173.92 72.3057 173.92C72.999 173.92 73.519 174.107 73.8657 174.48C74.219 174.847 74.3957 175.337 74.3957 175.95V179H73.6457L73.5957 178.11C73.4557 178.39 73.249 178.63 72.9757 178.83C72.709 179.023 72.349 179.12 71.8957 179.12ZM72.0257 178.41C72.3457 178.41 72.619 178.327 72.8457 178.16C73.079 177.993 73.2557 177.777 73.3757 177.51C73.4957 177.243 73.5557 176.963 73.5557 176.67V176.66H72.2857C71.7923 176.66 71.4423 176.747 71.2357 176.92C71.0357 177.087 70.9357 177.297 70.9357 177.55C70.9357 177.81 71.029 178.02 71.2157 178.18C71.409 178.333 71.679 178.41 72.0257 178.41ZM75.6558 179V174.04H76.4158L76.4858 174.99C76.6392 174.663 76.8725 174.403 77.1858 174.21C77.4992 174.017 77.8858 173.92 78.3458 173.92V174.8H78.1158C77.8225 174.8 77.5525 174.853 77.3058 174.96C77.0592 175.06 76.8625 175.233 76.7158 175.48C76.5692 175.727 76.4958 176.067 76.4958 176.5V179H75.6558ZM81.2486 179C80.7953 179 80.4386 178.89 80.1786 178.67C79.9186 178.45 79.7886 178.053 79.7886 177.48V174.75H78.9286V174.04H79.7886L79.8986 172.85H80.6286V174.04H82.0886V174.75H80.6286V177.48C80.6286 177.793 80.692 178.007 80.8186 178.12C80.9453 178.227 81.1686 178.28 81.4886 178.28H82.0086V179H81.2486ZM83.6658 172.94C83.4992 172.94 83.3592 172.887 83.2458 172.78C83.1392 172.667 83.0858 172.527 83.0858 172.36C83.0858 172.2 83.1392 172.067 83.2458 171.96C83.3592 171.853 83.4992 171.8 83.6658 171.8C83.8258 171.8 83.9625 171.853 84.0758 171.96C84.1892 172.067 84.2458 172.2 84.2458 172.36C84.2458 172.527 84.1892 172.667 84.0758 172.78C83.9625 172.887 83.8258 172.94 83.6658 172.94ZM83.2458 179V174.04H84.0858V179H83.2458ZM87.8284 179.12C87.3551 179.12 86.9284 179.013 86.5484 178.8C86.1751 178.58 85.8784 178.277 85.6584 177.89C85.4451 177.497 85.3384 177.04 85.3384 176.52C85.3384 176 85.4451 175.547 85.6584 175.16C85.8784 174.767 86.1751 174.463 86.5484 174.25C86.9284 174.03 87.3551 173.92 87.8284 173.92C88.4151 173.92 88.9084 174.073 89.3084 174.38C89.7151 174.687 89.9717 175.097 90.0784 175.61H89.2184C89.1517 175.303 88.9884 175.067 88.7284 174.9C88.4684 174.727 88.1651 174.64 87.8184 174.64C87.5384 174.64 87.2751 174.71 87.0284 174.85C86.7817 174.99 86.5817 175.2 86.4284 175.48C86.2751 175.76 86.1984 176.107 86.1984 176.52C86.1984 176.933 86.2751 177.28 86.4284 177.56C86.5817 177.84 86.7817 178.053 87.0284 178.2C87.2751 178.34 87.5384 178.41 87.8184 178.41C88.1651 178.41 88.4684 178.327 88.7284 178.16C88.9884 177.987 89.1517 177.743 89.2184 177.43H90.0784C89.9784 177.93 89.7251 178.337 89.3184 178.65C88.9117 178.963 88.4151 179.12 87.8284 179.12ZM91.7615 172.94C91.5949 172.94 91.4549 172.887 91.3415 172.78C91.2349 172.667 91.1815 172.527 91.1815 172.36C91.1815 172.2 91.2349 172.067 91.3415 171.96C91.4549 171.853 91.5949 171.8 91.7615 171.8C91.9215 171.8 92.0582 171.853 92.1715 171.96C92.2849 172.067 92.3415 172.2 92.3415 172.36C92.3415 172.527 92.2849 172.667 92.1715 172.78C92.0582 172.887 91.9215 172.94 91.7615 172.94ZM91.3415 179V174.04H92.1815V179H91.3415ZM93.6441 181.2V174.04H94.4041L94.4841 174.86C94.6441 174.62 94.8708 174.403 95.1641 174.21C95.4641 174.017 95.8441 173.92 96.3041 173.92C96.7974 173.92 97.2274 174.033 97.5941 174.26C97.9608 174.487 98.2441 174.797 98.4441 175.19C98.6508 175.583 98.7541 176.03 98.7541 176.53C98.7541 177.03 98.6508 177.477 98.4441 177.87C98.2441 178.257 97.9574 178.563 97.5841 178.79C97.2174 179.01 96.7874 179.12 96.2941 179.12C95.8874 179.12 95.5241 179.037 95.2041 178.87C94.8908 178.703 94.6508 178.47 94.4841 178.17V181.2H93.6441ZM96.2041 178.39C96.5374 178.39 96.8308 178.313 97.0841 178.16C97.3374 178 97.5374 177.78 97.6841 177.5C97.8308 177.22 97.9041 176.893 97.9041 176.52C97.9041 176.147 97.8308 175.82 97.6841 175.54C97.5374 175.26 97.3374 175.043 97.0841 174.89C96.8308 174.73 96.5374 174.65 96.2041 174.65C95.8708 174.65 95.5774 174.73 95.3241 174.89C95.0708 175.043 94.8708 175.26 94.7241 175.54C94.5774 175.82 94.5041 176.147 94.5041 176.52C94.5041 176.893 94.5774 177.22 94.7241 177.5C94.8708 177.78 95.0708 178 95.3241 178.16C95.5774 178.313 95.8708 178.39 96.2041 178.39ZM101.573 179.12C101.16 179.12 100.817 179.05 100.543 178.91C100.27 178.77 100.067 178.583 99.9334 178.35C99.8001 178.117 99.7334 177.863 99.7334 177.59C99.7334 177.083 99.9267 176.693 100.313 176.42C100.7 176.147 101.227 176.01 101.893 176.01H103.233V175.95C103.233 175.517 103.12 175.19 102.893 174.97C102.667 174.743 102.363 174.63 101.983 174.63C101.657 174.63 101.373 174.713 101.133 174.88C100.9 175.04 100.753 175.277 100.693 175.59H99.8334C99.8667 175.23 99.9867 174.927 100.193 174.68C100.407 174.433 100.67 174.247 100.983 174.12C101.297 173.987 101.63 173.92 101.983 173.92C102.677 173.92 103.197 174.107 103.543 174.48C103.897 174.847 104.073 175.337 104.073 175.95V179H103.323L103.273 178.11C103.133 178.39 102.927 178.63 102.653 178.83C102.387 179.023 102.027 179.12 101.573 179.12ZM101.703 178.41C102.023 178.41 102.297 178.327 102.523 178.16C102.757 177.993 102.933 177.777 103.053 177.51C103.173 177.243 103.233 176.963 103.233 176.67V176.66H101.963C101.47 176.66 101.12 176.747 100.913 176.92C100.713 177.087 100.613 177.297 100.613 177.55C100.613 177.81 100.707 178.02 100.893 178.18C101.087 178.333 101.357 178.41 101.703 178.41ZM107.157 179C106.704 179 106.347 178.89 106.087 178.67C105.827 178.45 105.697 178.053 105.697 177.48V174.75H104.837V174.04H105.697L105.807 172.85H106.537V174.04H107.997V174.75H106.537V177.48C106.537 177.793 106.6 178.007 106.727 178.12C106.854 178.227 107.077 178.28 107.397 178.28H107.917V179H107.157ZM111.157 179.12C110.684 179.12 110.264 179.013 109.897 178.8C109.531 178.58 109.241 178.277 109.027 177.89C108.821 177.503 108.717 177.047 108.717 176.52C108.717 176 108.821 175.547 109.027 175.16C109.234 174.767 109.521 174.463 109.887 174.25C110.261 174.03 110.691 173.92 111.177 173.92C111.657 173.92 112.071 174.03 112.417 174.25C112.771 174.463 113.041 174.747 113.227 175.1C113.414 175.453 113.507 175.833 113.507 176.24C113.507 176.313 113.504 176.387 113.497 176.46C113.497 176.533 113.497 176.617 113.497 176.71H109.547C109.567 177.09 109.654 177.407 109.807 177.66C109.967 177.907 110.164 178.093 110.397 178.22C110.637 178.347 110.891 178.41 111.157 178.41C111.504 178.41 111.794 178.33 112.027 178.17C112.261 178.01 112.431 177.793 112.537 177.52H113.367C113.234 177.98 112.977 178.363 112.597 178.67C112.224 178.97 111.744 179.12 111.157 179.12ZM111.157 174.63C110.757 174.63 110.401 174.753 110.087 175C109.781 175.24 109.604 175.593 109.557 176.06H112.677C112.657 175.613 112.504 175.263 112.217 175.01C111.931 174.757 111.577 174.63 111.157 174.63Z" fill="white"/>
<defs>
<linearGradient id="paint0_linear_464_5567" x1="254.08" y1="56.3686" x2="250.568" y2="56.833" gradientUnits="userSpaceOnUse">
<stop stop-color="#ECC4D7"/>
<stop offset="0.16" stop-color="#EDCBD5"/>
<stop offset="0.42" stop-color="#EFD4D1"/>
<stop offset="0.7" stop-color="#F2EAC9"/>
</linearGradient>
<linearGradient id="paint1_linear_464_5567" x1="295.593" y1="56.3686" x2="299.108" y2="56.833" gradientUnits="userSpaceOnUse">
<stop stop-color="#ECC4D7"/>
<stop offset="0.16" stop-color="#EDCBD5"/>
<stop offset="0.42" stop-color="#EFD4D1"/>
<stop offset="0.7" stop-color="#F2EAC9"/>
</linearGradient>
<linearGradient id="paint2_linear_464_5567" x1="276.614" y1="186.217" x2="277.486" y2="259.072" gradientUnits="userSpaceOnUse">
<stop offset="0.01" stop-opacity="0"/>
<stop offset="0.26" stop-color="#0D0D12" stop-opacity="0.21"/>
<stop offset="0.77" stop-color="#2F2E40" stop-opacity="0.75"/>
<stop offset="0.99" stop-color="#3F3D56"/>
</linearGradient>
<linearGradient id="paint3_linear_464_5567" x1="271.119" y1="108.972" x2="277.83" y2="-8.07242" gradientUnits="userSpaceOnUse">
<stop offset="0.01" stop-opacity="0"/>
<stop offset="0.26" stop-color="#0D0D12" stop-opacity="0.21"/>
<stop offset="0.77" stop-color="#2F2E40" stop-opacity="0.75"/>
<stop offset="0.99" stop-color="#3F3D56"/>
</linearGradient>
<linearGradient id="paint4_linear_464_5567" x1="221.576" y1="174.047" x2="323.002" y2="174.047" gradientUnits="userSpaceOnUse">
<stop offset="0.01" stop-opacity="0"/>
<stop offset="0.26" stop-color="#0D0D12" stop-opacity="0.21"/>
<stop offset="0.77" stop-color="#2F2E40" stop-opacity="0.75"/>
<stop offset="0.99" stop-color="#3F3D56"/>
</linearGradient>
<linearGradient id="paint5_linear_464_5567" x1="273.818" y1="202.614" x2="275.447" y2="178.903" gradientUnits="userSpaceOnUse">
<stop stop-color="#68E1FD"/>
<stop offset="1" stop-color="#69B9EB"/>
</linearGradient>
<linearGradient id="paint6_linear_464_5567" x1="272.26" y1="184.196" x2="272.508" y2="137.81" gradientUnits="userSpaceOnUse">
<stop offset="0.01" stop-opacity="0"/>
<stop offset="0.26" stop-color="#0D0D12" stop-opacity="0.21"/>
<stop offset="0.77" stop-color="#2F2E40" stop-opacity="0.75"/>
<stop offset="0.99" stop-color="#3F3D56"/>
</linearGradient>
<linearGradient id="paint7_linear_464_5567" x1="304.875" y1="168.598" x2="181.913" y2="204.114" gradientUnits="userSpaceOnUse">
<stop offset="0.01" stop-opacity="0"/>
<stop offset="0.26" stop-color="#0D0D12" stop-opacity="0.21"/>
<stop offset="0.77" stop-color="#2F2E40" stop-opacity="0.75"/>
<stop offset="0.99" stop-color="#3F3D56"/>
</linearGradient>
<linearGradient id="paint8_linear_464_5567" x1="272.975" y1="83.767" x2="277.875" y2="190.874" gradientUnits="userSpaceOnUse">
<stop offset="0.01" stop-opacity="0"/>
<stop offset="0.26" stop-color="#0D0D12" stop-opacity="0.21"/>
<stop offset="0.77" stop-color="#2F2E40" stop-opacity="0.75"/>
<stop offset="0.99" stop-color="#3F3D56"/>
</linearGradient>
<linearGradient id="paint9_linear_464_5567" x1="211.628" y1="214.366" x2="222.239" y2="72.7668" gradientUnits="userSpaceOnUse">
<stop stop-color="#ECC4D7"/>
<stop offset="0.16" stop-color="#EDCBD5"/>
<stop offset="0.42" stop-color="#EFD4D1"/>
<stop offset="0.7" stop-color="#F2EAC9"/>
</linearGradient>
<linearGradient id="paint10_linear_464_5567" x1="330.457" y1="248.66" x2="342.273" y2="90.969" gradientUnits="userSpaceOnUse">
<stop stop-color="#ECC4D7"/>
<stop offset="0.16" stop-color="#EDCBD5"/>
<stop offset="0.42" stop-color="#EFD4D1"/>
<stop offset="0.7" stop-color="#F2EAC9"/>
</linearGradient>
<linearGradient id="paint11_linear_464_5567" x1="273.342" y1="111.069" x2="278.893" y2="36.9592" gradientUnits="userSpaceOnUse">
<stop stop-color="#ECC4D7"/>
<stop offset="0.16" stop-color="#EDCBD5"/>
<stop offset="0.42" stop-color="#EFD4D1"/>
<stop offset="0.7" stop-color="#F2EAC9"/>
</linearGradient>
<linearGradient id="paint12_linear_464_5567" x1="274.967" y1="1.89105" x2="273.448" y2="121.336" gradientUnits="userSpaceOnUse">
<stop stop-color="#ECC4D7"/>
<stop offset="0.16" stop-color="#EDCBD5"/>
<stop offset="0.42" stop-color="#EFD4D1"/>
<stop offset="0.7" stop-color="#F2EAC9"/>
</linearGradient>
<linearGradient id="paint13_linear_464_5567" x1="279.931" y1="119.437" x2="237.747" y2="364.318" gradientUnits="userSpaceOnUse">
<stop offset="0.01" stop-opacity="0"/>
<stop offset="0.26" stop-color="#0D0D12" stop-opacity="0.21"/>
<stop offset="0.77" stop-color="#2F2E40" stop-opacity="0.75"/>
<stop offset="0.99" stop-color="#3F3D56"/>
</linearGradient>
<linearGradient id="paint14_linear_464_5567" x1="93.0745" y1="82.4335" x2="93.0745" y2="175.632" gradientUnits="userSpaceOnUse">
<stop stop-color="#10C8CD"/>
<stop offset="1" stop-color="white" stop-opacity="0"/>
</linearGradient>
<linearGradient id="paint15_linear_464_5567" x1="91.6466" y1="104.114" x2="91.6466" y2="170.768" gradientUnits="userSpaceOnUse">
<stop stop-color="#10C8CD"/>
<stop offset="1" stop-color="white" stop-opacity="0"/>
</linearGradient>
<clipPath id="clip0_464_5567">
<rect width="188" height="208" fill="white" transform="translate(181.999)"/>
</clipPath>
</defs>
</svg>
